<?xml version="1.0"?>
<svg xmlns="http://www.w3.org/2000/svg" height="512px" viewBox="0 -49 512 512" width="512px" class=""><g><path d="m242.085938 38.054688h83.871093v165.496093h-83.871093zm0 0" fill="#76ffd9" data-original="#76FFD9"/><path d="m242.085938 62.722656h83.871093v140.828125h-83.871093zm0 0" fill="#5de0bf" data-original="#5DE0BF" class="" style="fill:#67DDD2" data-old_color="#3EC4A2"/><path d="m304.210938 38.054688h21.746093v165.496093h-21.746093zm0 0" fill="#5de0bf" data-original="#5DE0BF" class="" style="fill:#67DDD2" data-old_color="#3EC4A2"/><path d="m178.988281 83.445312h158.421875v322.792969h-158.421875zm0 0" fill="#76ffd9" data-original="#76FFD9"/><path d="m179.207031 121.203125h37.058594v285.035156h-37.058594zm0 0" fill="#5de0bf" data-original="#5DE0BF" class="" style="fill:#67DDD2" data-old_color="#3EC4A2"/><path d="m314.503906 83.445312h22.90625v322.792969h-22.90625zm0 0" fill="#5de0bf" data-original="#5DE0BF" class="" style="fill:#67DDD2" data-old_color="#3EC4A2"/><g fill="#fff"><path d="m220.082031 180.429688h24.972657v24.972656h-24.972657zm0 0" data-original="#000000"/><path d="m270.367188 180.429688h24.96875v24.972656h-24.96875zm0 0" data-original="#000000"/><path d="m220.082031 129.433594h24.972657v24.96875h-24.972657zm0 0" data-original="#000000"/><path d="m270.367188 129.433594h24.96875v24.96875h-24.96875zm0 0" data-original="#000000"/><path d="m220.082031 231.039062h24.972657v24.972657h-24.972657zm0 0" data-original="#000000"/><path d="m270.367188 231.039062h24.96875v24.972657h-24.96875zm0 0" data-original="#000000"/><path d="m220.082031 281.652344h24.972657v24.96875h-24.972657zm0 0" data-original="#000000"/><path d="m270.367188 281.652344h24.96875v24.96875h-24.96875zm0 0" data-original="#000000"/><path d="m220.082031 332.261719h24.972657v24.972656h-24.972657zm0 0" data-original="#000000"/><path d="m270.367188 332.261719h24.96875v24.972656h-24.96875zm0 0" data-original="#000000"/></g><path d="m91.257812 54.058594h40.382813v110.277344h-40.382813zm0 0" fill="#76ffd9" data-original="#76FFD9"/><path d="m69.511719 93.277344h83.871093v110.273437h-83.871093zm0 0" fill="#fff" data-original="#FFF"/><path d="m69.511719 127.691406h83.871093v75.859375h-83.871093zm0 0" fill="#76ffd9" data-original="#76FFD9"/><path d="m131.640625 93.277344h21.742187v110.273437h-21.742187zm0 0" fill="#76ffd9" data-original="#76FFD9"/><path d="m32.238281 148.414062h158.417969v257.824219h-158.417969zm0 0" fill="#fff" data-original="#FFF"/><path d="m167.753906 148.414062h22.90625v257.824219h-22.90625zm0 0" fill="#76ffd9" data-original="#76FFD9"/><path d="m73.601562 189.144531h24.96875v24.96875h-24.96875zm0 0" fill="#ffc843" data-original="#FFC843"/><path d="m123.886719 189.144531h24.96875v24.96875h-24.96875zm0 0" fill="#ffc843" data-original="#FFC843"/><path d="m73.601562 239.753906h24.96875v24.972656h-24.96875zm0 0" fill="#ffc843" data-original="#FFC843"/><path d="m123.886719 239.753906h24.96875v24.972656h-24.96875zm0 0" fill="#ffc843" data-original="#FFC843"/><path d="m73.601562 290.367188h24.96875v24.96875h-24.96875zm0 0" fill="#ffc843" data-original="#FFC843"/><path d="m123.886719 290.367188h24.96875v24.96875h-24.96875zm0 0" fill="#ffc843" data-original="#FFC843"/><path d="m73.601562 340.976562h24.96875v24.96875h-24.96875zm0 0" fill="#ffc843" data-original="#FFC843"/><path d="m123.886719 340.976562h24.96875v24.96875h-24.96875zm0 0" fill="#ffc843" data-original="#FFC843"/><path d="m337.550781 115.929688h138.929688v290.308593h-138.929688zm0 0" fill="#5de0bf" data-original="#5DE0BF" class="" style="fill:#67DDD2" data-old_color="#3EC4A2"/><path d="m453.574219 115.929688h22.90625v290.308593h-22.90625zm0 0" fill="#00c395" data-original="#00C395" class="active-path" style="fill:#3FC0B4" data-old_color="#67DDD2"/><path d="m370.199219 180.429688h24.972656v24.972656h-24.972656zm0 0" fill="#fff" data-original="#FFF"/><path d="m420.484375 180.429688h24.96875v24.972656h-24.96875zm0 0" fill="#fff" data-original="#FFF"/><path d="m370.199219 231.039062h24.972656v24.972657h-24.972656zm0 0" fill="#fff" data-original="#FFF"/><path d="m420.484375 231.039062h24.96875v24.972657h-24.96875zm0 0" fill="#fff" data-original="#FFF"/><path d="m370.199219 281.652344h24.972656v24.96875h-24.972656zm0 0" fill="#fff" data-original="#FFF"/><path d="m420.484375 281.652344h24.96875v24.96875h-24.96875zm0 0" fill="#fff" data-original="#FFF"/><path d="m370.199219 332.261719h24.972656v24.972656h-24.972656zm0 0" fill="#fff" data-original="#FFF"/><path d="m420.484375 332.261719h24.96875v24.972656h-24.96875zm0 0" fill="#fff" data-original="#FFF"/><path d="m354.441406 43.234375h105.148438v50.042969h-105.148438zm0 0" fill="#76ffd9" data-original="#76FFD9"/><path d="m504.5 398.738281h-20.519531v-218.304687c0-4.144532-3.355469-7.5-7.5-7.5-4.140625 0-7.5 3.355468-7.5 7.5v218.304687h-123.929688v-275.308593h123.929688v24.984374c0 4.144532 3.359375 7.5 7.5 7.5 4.144531 0 7.5-3.355468 7.5-7.5v-32.484374c0-4.140626-3.355469-7.5-7.5-7.5h-20.457031v-7.652344h3.566406c4.144531 0 7.5-3.355469 7.5-7.5v-50.046875c0-4.140625-3.355469-7.5-7.5-7.5h-105.148438c-4.140625 0-7.5 3.359375-7.5 7.5v50.046875c0 4.144531 3.359375 7.5 7.5 7.5h3.566406v7.652344h-13.097656v-24.980469c0-4.144531-3.355468-7.5-7.5-7.5h-3.953125v-37.894531c0-4.140626-3.359375-7.5-7.5-7.5h-21.746093c-4.140626 0-7.5 3.359374-7.5 7.5 0 4.144531 3.359374 7.5 7.5 7.5h14.246093v30.394531h-68.871093v-30.394531h23.746093c4.144531 0 7.5-3.355469 7.5-7.5 0-4.140626-3.355469-7.5-7.5-7.5h-31.246093c-4.144532 0-7.5 3.359374-7.5 7.5v37.894531h-55.597657c-4.140625 0-7.5 3.359375-7.5 7.5v57.464843h-10.605469v-47.636718c0-4.140625-3.355468-7.5-7.5-7.5h-14.242187v-31.71875c0-4.140625-3.359375-7.5-7.5-7.5h-12.691406v-39.058594c0-4.144531-3.359375-7.5-7.5-7.5-4.144531 0-7.5 3.355469-7.5 7.5v39.058594h-12.691407c-4.144531 0-7.5 3.359375-7.5 7.5v31.71875h-14.246093c-4.140625 0-7.5 3.355468-7.5 7.5v47.636718h-29.773438c-4.144531 0-7.5 3.355469-7.5 7.5v195.789063c0 4.140625 3.355469 7.5 7.5 7.5 4.140625 0 7.5-3.359375 7.5-7.5v-188.289063h139.15625c.03125 0 .0625.003907.09375.003907.035157 0 .066407-.003907.097657-.003907h4.070312v242.824219h-143.417969v-23.535156c0-4.144531-3.359375-7.5-7.5-7.5-4.144531 0-7.5 3.355469-7.5 7.5v23.535156h-17.238281c-4.144531 0-7.5 3.355469-7.5 7.5 0 4.140625 3.355469 7.5 7.5 7.5h171.449219.039062 158.421875c.03125 0 .058594-.003906.089844-.003906.015625 0 .035156.003906.050781.003906h166.949219c4.144531 0 7.5-3.359375 7.5-7.5 0-4.144531-3.355469-7.5-7.5-7.5zm-142.558594-348.007812h90.148438v35.046875h-90.148438zm11.066406 50.046875h68.015626v7.652344h-68.015626zm-274.25-39.21875h25.382813v24.21875h-25.382813zm-21.746093 39.21875h68.871093v40.136718h-68.871093zm252.898437 297.960937h-131.753906v-250.324219c0-4.144531-3.355469-7.5-7.5-7.5h-4.167969v-49.964843h143.421875zm0 0" fill="#434c54" data-original="#434C54" class="" style="fill:#434C54"/></g> </svg>
