<?xml version="1.0" encoding="iso-8859-1"?>
<!-- Generator: Adobe Illustrator 19.0.0, SVG Export Plug-In . SVG Version: 6.00 Build 0)  -->
<svg version="1.1" id="Layer_1" xmlns="http://www.w3.org/2000/svg" xmlns:xlink="http://www.w3.org/1999/xlink" x="0px" y="0px"
	 viewBox="0 0 512 512" style="enable-background:new 0 0 512 512;" xml:space="preserve">
<path style="fill:#FF6F52;" d="M281.369,332.4l14.916,50.973c3.636,12.448-5.694,24.897-18.659,24.897h-28.439l-44.496-44.496
	l-8.672-78.911"/>
<path style="fill:#415E72;" d="M226.197,329.722l40.166,137.258c3.642,12.444-5.69,24.897-18.655,24.897h-53.445
	c-8.632,0-16.231-5.694-18.655-13.978L122.37,290.833"/>
<path style="fill:#FCD577;" d="M449.581,412.988L449.581,412.988c-56.2-53.458-130.797-83.27-208.36-83.27H120.763
	c-38.909,0-70.452-31.543-70.452-70.452v-85.423c0-38.909,31.543-70.452,70.452-70.452h120.459
	c77.564,0,152.161-29.813,208.36-83.27l0,0V412.988z"/>
<path style="fill:#EAC36E;" d="M100.321,259.266v-85.423c0-38.909,31.541-70.452,70.452-70.452h-50.01
	c-38.909,0-70.452,31.541-70.452,70.452v85.423c0,38.909,31.541,70.452,70.452,70.452h50.008
	C131.862,329.718,100.321,298.176,100.321,259.266z"/>
<path style="fill:#415E72;" d="M28.264,259.266h22.048v-76.873H28.264c-10.228,0-18.52,8.292-18.52,18.52v39.834
	C9.744,250.974,18.036,259.266,28.264,259.266z"/>
<path style="fill:#FCD577;" d="M449.577,151.691c31.252,9.755,53.945,38.924,53.945,73.401s-22.693,63.647-53.945,73.401"/>
<path style="fill:#FF6F52;" d="M449.581,20.123v392.871c-14.97-14.24-31.24-26.808-48.531-37.57V57.694
	C418.342,46.931,434.612,34.363,449.581,20.123z"/>
<path d="M512,225.093c0-35.558-21.413-66.829-53.941-79.821V20.122c0-3.644-2.171-6.936-5.52-8.373
	c-3.348-1.437-7.23-0.74-9.87,1.771c-54.75,52.08-126.517,80.76-202.082,80.76H130.362c-5.033,0-9.111,4.079-9.111,9.111
	c0,5.032,4.078,9.111,9.111,9.111h110.226c53.402,0,105.016-13.503,150.713-38.825v39.998c0,5.032,4.078,9.111,9.111,9.111
	c5.033,0,9.111-4.079,9.111-9.111V62.745c10.488-6.791,20.618-14.224,30.315-22.309v111.111c-0.001,0.095-0.001,0.189,0,0.284
	v146.522c-0.001,0.095-0.001,0.19,0,0.284v94.038c-9.696-8.086-19.826-15.52-30.315-22.309V146.853c0-5.032-4.078-9.111-9.111-9.111
	c-5.033,0-9.111,4.079-9.111,9.111v212.579c-45.697-25.322-97.31-38.825-150.713-38.825H120.131
	c-33.824,0-61.341-27.517-61.341-61.341v-85.423c0-24.71,14.706-46.897,37.467-56.523c4.633-1.961,6.803-7.307,4.841-11.941
	c-1.959-4.634-7.306-6.803-11.94-4.842C59.814,112.949,40.8,141.461,40.579,173.28H27.631C12.396,173.283,0,185.677,0,200.913
	v39.834c0,15.236,12.396,27.631,27.631,27.631h13.474c4.537,39.593,38.237,70.452,79.026,70.452h98.605l38.251,130.712
	c0.923,3.151,0.323,6.465-1.646,9.093c-1.968,2.628-4.982,4.135-8.265,4.135h-53.445c-4.555,0-8.63-3.054-9.91-7.426L149.446,358.22
	c-1.414-4.829-6.471-7.598-11.303-6.186c-4.83,1.414-7.598,6.474-6.186,11.303l34.275,117.122
	c3.537,12.088,14.806,20.53,27.399,20.53h53.445c9.078,0,17.404-4.167,22.847-11.43c5.443-7.263,7.103-16.425,4.553-25.136
	l-13.766-47.042h16.285c9.074,0,17.4-4.164,22.844-11.424c5.443-7.262,7.106-16.424,4.56-25.141l-10.887-37.201
	c55.709,10.148,107.389,36.243,149.159,75.975c1.727,1.644,3.987,2.51,6.282,2.51c1.211,0,2.432-0.242,3.588-0.737
	c3.349-1.436,5.52-4.729,5.52-8.373V304.915C490.588,291.922,512,260.649,512,225.093z M18.222,240.746v-39.834
	c0-5.188,4.221-9.41,9.41-9.41h12.936v58.652H27.631C22.443,250.156,18.222,245.934,18.222,240.746z M286.908,385.928
	c0.922,3.154,0.321,6.47-1.65,9.097c-1.968,2.626-4.982,4.133-8.264,4.133h-21.617l-17.655-60.33h2.867
	c11.125,0,22.163,0.639,33.082,1.865L286.908,385.928z M458.059,284.841V165.343c21.78,11.61,35.719,34.281,35.719,59.748
	S479.839,273.231,458.059,284.841z"/>
<g>
</g>
<g>
</g>
<g>
</g>
<g>
</g>
<g>
</g>
<g>
</g>
<g>
</g>
<g>
</g>
<g>
</g>
<g>
</g>
<g>
</g>
<g>
</g>
<g>
</g>
<g>
</g>
<g>
</g>
</svg>
