<?xml version="1.0" encoding="iso-8859-1"?>
<!-- Generator: Adobe Illustrator 19.0.0, SVG Export Plug-In . SVG Version: 6.00 Build 0)  -->
<svg version="1.1" id="Layer_1" xmlns="http://www.w3.org/2000/svg" xmlns:xlink="http://www.w3.org/1999/xlink" x="0px" y="0px"
	 viewBox="0 0 512 512" style="enable-background:new 0 0 512 512;" xml:space="preserve">
<path style="fill:#FCD577;" d="M256.595,8.538c-73.692,0-133.436,59.743-133.436,133.436c0,51.858,29.574,96.802,72.783,118.879
	V479.54l37.714,23.921h34.086h0.006l49.498-49.498l-18.801-30.931l18.801-30.931l-29.664-41.795c0,0,29.664-41.795,29.664-41.794
	v-47.661c43.209-22.078,72.783-67.021,72.783-118.879C390.031,68.281,330.288,8.538,256.595,8.538z M256.595,136.571
	c-19.595,0-35.48-15.884-35.48-35.48s15.884-35.48,35.48-35.48c19.595,0,35.48,15.884,35.48,35.48
	C292.075,120.685,276.191,136.571,256.595,136.571z"/>
<path d="M377.877,69.115c-2.422-4.046-7.666-5.359-11.711-2.937c-4.045,2.422-5.359,7.667-2.936,11.711
	c11.559,19.297,17.669,41.457,17.669,64.083c0,47.166-26.107,89.804-68.13,111.277c-2.856,1.459-4.654,4.395-4.654,7.603v44.938
	l-28.088,39.575c-2.1,2.96-2.1,6.923,0,9.883l26.414,37.216l-15.884,26.134c-1.655,2.725-1.655,6.144,0,8.869l15.317,25.202
	l-42.256,42.256h-22.019v-138.3c0-4.715-3.823-8.538-8.538-8.538c-4.715,0-8.538,3.823-8.538,8.538v131.313l-20.639-13.091V329.305
	c0-4.715-3.823-8.538-8.538-8.538s-8.538,3.823-8.538,8.538v150.236c0,2.923,1.496,5.644,3.965,7.209l37.714,23.921
	c1.367,0.867,2.953,1.328,4.573,1.328h34.092c2.264,0,4.435-0.899,6.038-2.501l49.498-49.498c2.782-2.783,3.302-7.108,1.258-10.472
	l-16.105-26.497l16.105-26.497c1.77-2.912,1.638-6.597-0.334-9.375l-26.157-36.854c7.687-10.831,25.4-35.787,26.127-36.811
	c1.03-1.434,1.604-3.173,1.604-4.981v-42.543c45.03-25.114,72.783-72.149,72.783-123.996
	C397.975,116.257,391.026,91.063,377.877,69.115z"/>
<path d="M186.812,298.573c0,4.715,3.823,8.538,8.538,8.538s8.538-3.823,8.538-8.538v-37.72c0-3.207-1.797-6.144-4.652-7.603
	c-42.024-21.472-68.13-64.111-68.13-111.277c0-68.869,56.029-124.898,124.898-124.898c34.641,0,66.845,13.855,90.681,39.012
	c3.243,3.423,8.647,3.568,12.07,0.326c3.423-3.243,3.569-8.647,0.326-12.07C331.985,15.748,295.378,0,256.002,0
	c-78.284,0-141.973,63.689-141.973,141.973c0,51.848,27.754,98.884,72.783,123.996V298.573z"/>
<path d="M224.526,275.76v52.405c0,4.715,3.823,8.538,8.538,8.538s8.538-3.823,8.538-8.538V275.76c0-4.715-3.823-8.538-8.538-8.538
	S224.526,271.045,224.526,275.76z"/>
<path d="M300.019,101.09c0-24.272-19.747-44.017-44.017-44.017s-44.017,19.746-44.017,44.017s19.746,44.017,44.017,44.017
	S300.019,125.361,300.019,101.09z M229.06,101.09c0-14.856,12.086-26.942,26.942-26.942c14.856,0,26.942,12.086,26.942,26.942
	s-12.086,26.942-26.942,26.942C241.146,128.033,229.06,115.946,229.06,101.09z"/>
<path d="M319.176,185.883c0-4.715-3.821-8.538-8.538-8.538H201.365c-4.715,0-8.538,3.823-8.538,8.538s3.823,8.538,8.538,8.538
	h109.274C315.355,194.421,319.176,190.598,319.176,185.883z"/>
<g>
</g>
<g>
</g>
<g>
</g>
<g>
</g>
<g>
</g>
<g>
</g>
<g>
</g>
<g>
</g>
<g>
</g>
<g>
</g>
<g>
</g>
<g>
</g>
<g>
</g>
<g>
</g>
<g>
</g>
</svg>
