<svg height="512pt" viewBox="-18 0 512 512.00038" width="512pt" xmlns="http://www.w3.org/2000/svg"><path d="m7.5 218.449219h461.007812v68.167969h-461.007812zm0 0" fill="#e1eaf8"/><path d="m334.21875 98.851562h-182.703125l91.351563-91.351562zm0 0" fill="#ffc843"/><path d="m334.21875 98.851562h-182.703125l37.199219-37.199218h108.304687zm0 0" fill="#fff"/><path d="m40.460938 86.003906h395.085937v369.882813h-395.085937zm0 0" fill="#fff"/><path d="m408.0625 86.003906h27.484375v369.882813h-27.484375zm0 0" fill="#e1eaf8"/><path d="m435.546875 210.183594v245.703125h-395.085937v-245.703125l197.542968 141.53125zm0 0" fill="#e1eaf8"/><path d="m468.511719 218.449219v286.050781h-461.011719v-286.050781l230.503906 165.152343 205.925782-147.550781zm0 0" fill="#fff"/><path d="m468.511719 218.449219v286.050781h-24.582031v-268.449219zm0 0" fill="#ffc843"/><path d="m84.566406 131.695312h63.9375v63.9375h-63.9375zm0 0" fill="#76ffd9"/><path d="m85.976562 497h-70.976562v-263.953125l35.710938 25.582031c3.367187 2.414063 8.050781 1.640625 10.464843-1.726562 2.410157-3.367188 1.636719-8.054688-1.730469-10.464844l-11.484374-8.230469v-18.921875c.03125-.277344.050781-.554687.050781-.839844 0-.285156-.019531-.566406-.050781-.839843v-124.101563h380.089843v28.828125c0 4.140625 3.355469 7.5 7.5 7.5 4.140625 0 7.5-3.359375 7.5-7.5v-36.328125c0-4.140625-3.359375-7.5-7.5-7.5h-111.066406l-76.316406-76.308594c-2.929688-2.929687-7.675781-2.925781-10.605469 0l-76.308594 76.308594h-120.792968c-4.144532 0-7.5 3.359375-7.5 7.5v124.941406h-25.414063c-4.007813 0-7.546875 3.378907-7.546875 7.5v286.054688c0 4.140625 3.355469 7.5 7.5 7.5h78.476562c4.144532 0 7.5-3.359375 7.5-7.5s-3.355468-7.5-7.5-7.5zm156.886719-478.894531 60.40625 60.398437h-120.800781zm0 0" fill="#434c54"/><g fill="#969ba1"><path d="m179.550781 147.976562h31.882813c4.144531 0 7.5-3.359374 7.5-7.5 0-4.140624-3.355469-7.5-7.5-7.5h-31.882813c-4.144531 0-7.5 3.359376-7.5 7.5 0 4.140626 3.355469 7.5 7.5 7.5zm0 0"/><path d="m327.875 180.210938c0-4.144532-3.355469-7.5-7.5-7.5h-140.824219c-4.144531 0-7.5 3.355468-7.5 7.5 0 4.140624 3.355469 7.5 7.5 7.5h140.824219c4.144531 0 7.5-3.359376 7.5-7.5zm0 0"/><path d="m111.375 250.273438h78.957031c4.140625 0 7.5-3.355469 7.5-7.5 0-4.140626-3.359375-7.5-7.5-7.5h-78.957031c-4.144531 0-7.5 3.359374-7.5 7.5 0 4.144531 3.355469 7.5 7.5 7.5zm0 0"/></g><path d="m47.921875 461.101562c0 4.140626 3.355469 7.5 7.5 7.5h61.113281c4.144532 0 7.5-3.359374 7.5-7.5 0-4.140624-3.355468-7.5-7.5-7.5h-61.113281c-4.144531 0-7.5 3.355469-7.5 7.5zm0 0" fill="#434c54"/><path d="m341.710938 314.988281h-210.664063l30.917969 15h148.828125zm0 0" fill="#969ba1"/><path d="m380.003906 282.980469h-287.25l25.921875 15h235.40625zm0 0" fill="#969ba1"/><path d="m294.003906 346.996094h-108.582031l15.9375 15h76.710937zm0 0" fill="#969ba1"/><path d="m475.945312 217.5c-.464843-3.691406-3.714843-6.554688-7.433593-6.554688h-25.460938v-58.277343c0-4.144531-3.359375-7.5-7.5-7.5-4.144531 0-7.5 3.355469-7.5 7.5v65.738281c0 .011719-.003906.027344-.003906.039062 0 .011719.003906.027344.003906.039063v19.722656l-190.046875 136.167969-152.863281-109.527344c-3.367187-2.414062-8.050781-1.640625-10.464844 1.730469-2.414062 3.367187-1.640625 8.050781 1.726563 10.464844l157.234375 112.65625c2.613281 1.871093 6.125 1.871093 8.738281 0l218.636719-156.652344v263.953125h-344.476563c-4.144531 0-7.5 3.359375-7.5 7.5s3.355469 7.5 7.5 7.5h351.976563c4.140625 0 7.5-3.359375 7.5-7.5v-286.054688c0-.320312-.027344-.632812-.066407-.945312zm0 0" fill="#434c54"/></svg>