<?xml version="1.0"?>
<svg xmlns="http://www.w3.org/2000/svg" xmlns:xlink="http://www.w3.org/1999/xlink" version="1.1" id="Layer_1" x="0px" y="0px" viewBox="0 0 512 512" style="enable-background:new 0 0 512 512;" xml:space="preserve" width="512px" height="512px" class=""><g><g>
	<polygon style="fill:#F7CB4F;" points="307.951,113.988 299.029,72.66 363.593,8.094 372.516,49.422  " data-original="#F7CB4F"/>
	<polygon style="fill:#F7CB4F;" points="324.048,130.086 365.376,139.008 429.942,74.442 388.613,65.521  " data-original="#F7CB4F"/>
</g><polygon style="fill:#F4B008;" points="348.107,135.279 365.376,139.008 429.942,74.442 412.673,70.715 " data-original="#F4B008"/><g>
	<path style="fill:#F2464F;" d="M381.077,343.446c0.074,0.002,0.147,0.005,0.221,0.007c0.005-0.007,0.01-0.014,0.015-0.021   C381.234,343.435,381.156,343.443,381.077,343.446z" data-original="#F2464F" class=""/>
	<path style="fill:#F2464F;" d="M348.601,347.612L348.601,347.612c0.001-0.001,0.003-0.001,0.004-0.001   c1.176-0.312,2.359-0.605,3.545-0.885c0.214-0.05,0.43-0.096,0.645-0.146c0.938-0.215,1.88-0.421,2.824-0.615   c0.321-0.066,0.642-0.13,0.963-0.193c0.884-0.175,1.77-0.34,2.658-0.496c0.301-0.053,0.601-0.108,0.902-0.159   c1.153-0.194,2.31-0.376,3.47-0.538c0.013-0.002,0.025-0.004,0.038-0.006c1.183-0.165,2.37-0.31,3.56-0.441   c0.316-0.035,0.633-0.064,0.95-0.096c0.864-0.089,1.729-0.169,2.597-0.24c0.393-0.032,0.786-0.062,1.18-0.09   c0.838-0.06,1.677-0.11,2.517-0.154c0.363-0.019,0.725-0.04,1.087-0.056c0.525-0.022,1.051-0.037,1.576-0.053   c-32.053-1.057-57.95-27.583-57.95-59.882v-51.573c0-32.962,26.97-59.932,59.932-59.932c14.176,0,27.237,4.998,37.528,13.306   c-4.698-25.423-14.053-49.214-27.154-70.451l-24.093,24.093l-41.328-8.922l-94.258,94.258c-4.066,4.066-10.658,4.066-14.723,0   l-1.375-1.375c-4.066-4.066-4.066-10.658,0-14.723l94.257-94.258l-8.922-41.328l24.371-24.371   c-31.755-19.965-69.335-31.514-109.615-31.514c-113.929,0-206.286,92.357-206.286,206.286s92.357,206.286,206.286,206.286   c16.422,0,32.392-1.93,47.705-5.555C276.015,386.806,309.332,358.032,348.601,347.612z" data-original="#F2464F" class=""/>
</g><path style="fill:#28CDB3" d="M379.096,503.904H253.69v-39.255c0-66.177,59.234-120.35,125.405-121.255  c66.171,0.905,125.405,55.078,125.405,121.255v39.255H379.096z" data-original="#68B9D8" class="" data-old_color="#68B9D8"/><path style="fill:#18A18B" d="M379.096,343.394c-3.354,0.046-6.688,0.235-9.999,0.549c62.023,5.884,115.406,57.881,115.406,120.705  v39.255h19.998v-39.255C504.501,398.47,445.267,344.299,379.096,343.394z" data-original="#3695B2" class="active-path" data-old_color="#1EA892"/><path style="fill:#FFC89F;" d="M379.096,343.496L379.096,343.496c32.963,0,59.932-26.97,59.932-59.932v-51.573  c0-32.962-26.97-59.932-59.932-59.932l0,0c-32.963,0-59.932,26.97-59.932,59.932v51.573  C319.164,316.527,346.132,343.496,379.096,343.496z" data-original="#FFC89F"/><path style="fill:#F7B081;" d="M379.096,172.059L379.096,172.059c-3.407,0-6.744,0.303-9.999,0.856  c28.245,4.797,49.933,29.52,49.933,59.076v51.573c0,29.557-21.688,54.279-49.933,59.076c3.255,0.553,6.592,0.856,9.999,0.856l0,0  c32.963,0,59.932-26.97,59.932-59.932v-51.573C439.028,199.029,412.059,172.059,379.096,172.059z" data-original="#F7B081"/><path style="fill:#D3333C;" d="M393.491,378.89h-14.395H364.7l-16.099-31.277c9.858-2.616,20.09-4.077,30.494-4.218  c10.404,0.142,20.637,1.604,30.494,4.218L393.491,378.89z" data-original="#D3333C"/><path style="fill:#7F1B20;" d="M391.122,344.152l-17.629,34.738h5.602h14.395l16.099-31.277  C403.559,346.013,397.386,344.85,391.122,344.152z" data-original="#7F1B20"/><polygon style="fill:#F2464F;" points="379.096,479.801 348.008,451.348 364.7,378.89 379.096,378.89 393.491,378.89   410.183,451.348 " data-original="#F2464F" class=""/><polygon style="fill:#D3333C;" points="393.491,378.89 379.096,378.89 373.493,378.89 390.185,451.348 369.097,470.649   379.096,479.801 410.183,451.348 " data-original="#D3333C"/><path style="fill:#546F7A;" d="M215.068,224.343l-1.375-1.375c-4.066-4.066-4.066-10.658,0-14.723l158.78-158.78l16.098,16.098  l-158.78,158.78C225.726,228.409,219.133,228.409,215.068,224.343z" data-original="#546F7A"/><path style="fill:#EFE7E4;" d="M333.629,322.471c-9-10.488-14.465-24.085-14.465-38.907v-51.573  c0-26.956,18.041-49.895,42.641-57.363c-4.802-14.679-11.723-28.401-20.407-40.797l-17.35-3.746l-94.258,94.258  c-4.066,4.066-10.658,4.066-14.723,0l-1.375-1.375c-4.066-4.066-4.066-10.658,0-14.723l94.257-94.258l-3.832-17.75  c-25.475-18.182-56.651-28.889-90.334-28.889c-85.997,0-155.711,69.714-155.711,155.711S127.786,378.77,213.783,378.77  C261.985,378.77,305.067,356.865,333.629,322.471z" data-original="#EFE7E4" class=""/><path style="fill:#F2464F;" d="M229.791,224.343c-4.066,4.066-10.658,4.066-14.723,0l-1.375-1.375  c-4.066-4.066-4.066-10.658,0-14.723l67.12-67.12c-18.254-14.951-41.592-23.925-67.029-23.925  c-58.464,0-105.86,47.394-105.86,105.859s47.395,105.86,105.86,105.86s105.86-47.394,105.86-105.86  c0-24.827-8.55-47.654-22.861-65.707L229.791,224.343z" data-original="#F2464F" class=""/><path style="fill:#EFE7E4;" d="M229.791,224.343c-4.066,4.066-10.658,4.066-14.723,0l-1.375-1.375  c-4.066-4.066-4.066-10.658,0-14.723l29.567-29.567c-8.442-5.618-18.574-8.898-29.476-8.898c-29.425,0-53.278,23.853-53.278,53.278  s23.853,53.279,53.278,53.279s53.278-23.853,53.278-53.279c0-10.283-2.921-19.88-7.966-28.022L229.791,224.343z" data-original="#EFE7E4" class=""/><path d="M414.265,341.07c19.335-11.869,32.261-33.204,32.261-57.506v-51.573c0-20.204-8.944-38.348-23.066-50.716  c-4.558-23.004-12.803-44.893-24.561-65.183l36.346-36.346c1.94-1.941,2.666-4.787,1.891-7.421s-2.928-4.632-5.61-5.211  l-39.276-8.479L379.405,45.79l-8.479-39.276c-0.579-2.684-2.579-4.835-5.211-5.611c-2.635-0.775-5.48-0.05-7.422,1.891  l-36.031,36.031C289.475,19.479,252.105,9.276,213.786,9.276c-57.104,0-110.791,22.237-151.168,62.616  C22.237,112.27,0,165.956,0,223.06c0,57.103,22.237,110.79,62.616,151.168s94.064,62.617,151.168,62.617  c12.27,0,24.518-1.059,36.565-3.137c-2.709,9.963-4.159,20.334-4.159,30.94v39.255c0,4.142,3.357,7.499,7.499,7.499h42.346  c4.143,0,7.499-3.358,7.499-7.499s-3.357-7.499-7.499-7.499h-34.846v-31.756c0-12.905,2.403-25.563,7.013-37.543  c0.093-0.189,0.189-0.377,0.267-0.575c9.675-24.634,28.578-45.721,52.183-59.316c0.154-0.088,0.308-0.176,0.462-0.263  c0.669-0.382,1.345-0.753,2.021-1.122c0.47-0.255,0.939-0.513,1.413-0.762c0.191-0.101,0.384-0.198,0.575-0.298  c6.327-3.291,12.915-6.03,19.663-8.186l11.992,23.296l-16.075,69.783c-0.607,2.634,0.251,5.39,2.245,7.215l31.086,28.453  c1.433,1.312,3.248,1.968,5.062,1.968c1.816,0,3.631-0.656,5.063-1.967l31.087-28.453c1.994-1.825,2.852-4.581,2.245-7.215  l-16.075-69.783l11.992-23.296c17.718,5.658,34.326,15.364,48.041,28.396c22.927,21.783,35.555,50.077,35.555,79.668v31.756h-175.97  c-4.143,0-7.499,3.358-7.499,7.499s3.357,7.499,7.499,7.499h183.467c4.143,0,7.499-3.358,7.499-7.499v-39.255  C512,407.39,469.885,356.958,414.265,341.07z M259.564,223.06c0,25.243-20.537,45.779-45.779,45.779  c-25.243,0-45.78-20.536-45.78-45.779s20.537-45.78,45.78-45.78c5.879,0,11.632,1.115,17.002,3.266l-22.397,22.396  c-3.491,3.492-5.236,8.078-5.236,12.664l0,0c0,4.586,1.746,9.173,5.237,12.666l1.375,1.374c0.105,0.105,0.22,0.195,0.327,0.297  c3.345,3.186,7.701,4.948,12.337,4.948c4.784,0,9.282-1.863,12.665-5.246l21.853-21.853  C258.672,212.667,259.564,217.825,259.564,223.06z M313.244,119.3c0.004-0.003,0.007-0.006,0.01-0.009l59.22-59.221l5.492,5.492  l-59.221,59.221l-27.265,27.265l-0.001,0.001l-37.684,37.684c-0.001,0.001-0.002,0.001-0.003,0.002l-29.306,29.306l0,0  c-0.186,0.185-0.379,0.331-0.571,0.446c-0.054,0.032-0.107,0.056-0.16,0.084c-0.042,0.022-0.085,0.047-0.126,0.066  c-0.474,0.213-0.919,0.257-1.2,0.257c-0.169,0-0.396-0.016-0.654-0.074c-0.343-0.078-0.74-0.233-1.122-0.529  c-0.096-0.074-0.19-0.157-0.283-0.25l-1.374-1.373c-1.136-1.136-1.136-2.984,0-4.119l29.567-29.566  c0.002-0.002,0.004-0.005,0.006-0.007l37.547-37.547c0.001-0.001,0.003-0.003,0.004-0.005L313.244,119.3z M326.461,138.279  l10.441,2.254c6.232,9.279,11.38,19.205,15.358,29.613c-11.716,5.103-21.711,13.434-28.852,23.872  c-3.371-12.807-9.005-24.909-16.754-35.934L326.461,138.279z M381.2,335.944c-0.055,0.001-0.108-0.007-0.164-0.005  c-0.02,0.001-0.041,0.002-0.061,0.003c-0.593-0.016-1.184-0.039-1.778-0.047c-0.068-0.001-0.137-0.001-0.205,0  c-0.596,0.008-1.189,0.031-1.783,0.047c-23.509-0.845-43.306-17.654-48.94-39.636c-0.006-0.024-0.012-0.048-0.018-0.072  c-0.184-0.723-0.349-1.452-0.502-2.186c-0.033-0.158-0.066-0.317-0.097-0.475c-0.121-0.609-0.227-1.222-0.327-1.837  c-0.038-0.238-0.078-0.476-0.113-0.715c-0.081-0.554-0.148-1.111-0.212-1.67c-0.031-0.277-0.067-0.553-0.093-0.83  c-0.055-0.563-0.093-1.131-0.129-1.699c-0.017-0.259-0.04-0.518-0.053-0.778c-0.039-0.823-0.063-1.649-0.063-2.481v-25.958  c46.71-3.188,63.982-35.137,63.982-35.137s11.429,30.096,40.884,34.778v26.316C431.528,311.77,409.138,334.834,381.2,335.944z   M387.902,127.088c7.509,13.581,13.354,27.904,17.473,42.805c-8.08-3.433-16.962-5.333-26.28-5.333  c-4.265,0-8.434,0.416-12.482,1.177c-2.69-7.168-5.867-14.135-9.537-20.85l6.716,1.45c0.289,0.062,0.578,0.103,0.868,0.131  c0.104,0.01,0.207,0.011,0.311,0.016c0.134,0.007,0.269,0.021,0.403,0.021c0.053,0,0.106-0.007,0.159-0.008  c0.108-0.002,0.215-0.009,0.322-0.016c0.179-0.012,0.357-0.03,0.534-0.054c0.107-0.015,0.214-0.028,0.32-0.047  c0.203-0.037,0.403-0.084,0.602-0.138c0.072-0.019,0.145-0.033,0.217-0.054c0.26-0.078,0.515-0.173,0.766-0.278  c0.086-0.036,0.169-0.08,0.254-0.119c0.174-0.081,0.345-0.167,0.513-0.262c0.089-0.05,0.177-0.103,0.264-0.158  c0.167-0.104,0.33-0.215,0.49-0.333c0.071-0.052,0.144-0.102,0.213-0.157c0.225-0.178,0.444-0.366,0.65-0.572l12.603-12.602  L387.902,127.088z M362.963,130.815l-23.882-5.156l50.561-50.561l1.385-1.385l23.883,5.156L362.963,130.815z M359.167,23.126  l5.156,23.883l-51.946,51.946l-5.156-23.883l21.482-21.481c0.001-0.001,0.002-0.003,0.004-0.005L359.167,23.126z M256.039,417.336  c-13.832,2.994-28.029,4.51-42.255,4.51c-109.61-0.001-198.786-89.176-198.786-198.787S104.174,24.274,213.784,24.274  c34.331,0,67.84,8.798,97.501,25.524l-17.559,17.559c-0.45,0.451-0.836,0.95-1.152,1.486c-0.633,1.071-0.99,2.284-1.038,3.527  c-0.024,0.622,0.029,1.251,0.164,1.874l1.32,6.111c-24.139-13.458-51.199-20.504-79.234-20.504  c-38.978,0-76.714,13.963-106.252,39.318c-3.144,2.698-3.504,7.432-0.807,10.575c2.7,3.143,7.435,3.502,10.575,0.806  c26.82-23.022,61.086-35.701,96.483-35.701c30.085,0,58.935,8.927,83.624,25.847l2.349,10.88l-19.612,19.612  c-19.226-13.884-42.527-21.485-66.361-21.485c-62.507,0-113.359,50.852-113.359,113.358c0,33.816,14.934,65.614,40.972,87.242  c3.185,2.645,7.913,2.209,10.561-0.978c2.646-3.187,2.209-7.914-0.978-10.561c-22.597-18.769-35.557-46.363-35.557-75.704  c0-54.236,44.125-98.359,98.36-98.359c19.873,0,39.326,6.07,55.616,17.233l-27.335,27.334c-8.69-4.58-18.352-6.984-28.282-6.984  c-33.513,0-60.778,27.265-60.778,60.778s27.265,60.777,60.778,60.777s60.777-27.265,60.777-60.777c0-9.3-2.126-18.42-6.181-26.7  l27.501-27.502c10.666,16.063,16.263,34.637,16.263,54.202c0,0.379-0.01,0.757-0.014,1.135c-0.077,0.666-0.142,1.335-0.2,2.007  c-0.046,0.523-0.086,1.046-0.12,1.571c-0.025,0.404-0.051,0.807-0.069,1.213c-0.046,0.999-0.076,2-0.076,3.006v0.781  c-4.893,49.693-46.922,88.648-97.881,88.648c-15.43,0-30.197-3.47-43.894-10.312c-3.708-1.852-8.21-0.348-10.06,3.358  c-1.852,3.706-0.349,8.209,3.357,10.06c15.796,7.891,32.819,11.892,50.596,11.892c41.689,0,78.189-22.626,97.881-56.239v3.385  c0,0.983,0.028,1.963,0.071,2.942c0.006,0.142,0.008,0.284,0.015,0.426c0.014,0.288,0.043,0.572,0.061,0.859  c0.033,0.518,0.069,1.035,0.114,1.551c0.026,0.304,0.044,0.61,0.074,0.914c0.028,0.279,0.065,0.556,0.096,0.834  c0.033,0.29,0.074,0.579,0.11,0.868c0.066,0.525,0.123,1.052,0.201,1.575c0.089,0.598,0.199,1.188,0.304,1.781  c0.085,0.482,0.163,0.965,0.258,1.443c0.127,0.64,0.275,1.272,0.421,1.905c0.097,0.422,0.188,0.845,0.292,1.264  c0.17,0.681,0.36,1.353,0.551,2.026c0.102,0.359,0.198,0.72,0.307,1.077c0.22,0.729,0.46,1.449,0.704,2.167  c0.098,0.288,0.191,0.578,0.293,0.864c0.28,0.789,0.58,1.568,0.888,2.343c0.081,0.203,0.158,0.407,0.24,0.609  c0.354,0.864,0.728,1.717,1.116,2.564c0.046,0.101,0.09,0.202,0.137,0.303c1.694,3.646,3.704,7.112,5.994,10.371  c-28.129,31.234-67.927,49.027-110.127,49.027c-81.724,0-148.212-66.487-148.212-148.212c0-34.022,11.815-67.254,33.267-93.573  c2.617-3.211,2.136-7.934-1.075-10.551c-3.211-2.619-7.936-2.135-10.551,1.075c-23.627,28.987-36.64,65.584-36.64,103.049  c0,89.993,73.216,163.21,163.21,163.21c45.895,0,89.204-19.117,120.105-52.718c3.098,2.804,6.457,5.322,10.036,7.519  c-34.319,9.803-63.491,32.759-80.805,62.358c-0.198,0.337-0.399,0.672-0.595,1.01c-0.073,0.127-0.142,0.255-0.215,0.383  C259.99,408.879,257.887,413.054,256.039,417.336z M379.096,469.635l-22.796-20.866l14.369-62.381h16.854l14.369,62.381  L379.096,469.635z M388.916,371.391h-19.642l-9.555-18.563c0.633-0.117,1.268-0.225,1.903-0.332  c0.444-0.074,0.887-0.147,1.332-0.216c0.881-0.137,1.763-0.266,2.645-0.383c0.989-0.13,1.978-0.25,2.969-0.355  c0.418-0.045,0.837-0.087,1.255-0.127c0.117-0.011,0.235-0.022,0.352-0.033c1.089-0.1,2.178-0.185,3.268-0.254  c0.435-0.027,0.868-0.057,1.308-0.08c0.013-0.001,0.026-0.001,0.039-0.002c0.881-0.046,1.762-0.069,2.643-0.094  c0.555,0.014,1.106,0.042,1.664,0.042s1.11-0.029,1.665-0.042c0.881,0.026,1.761,0.049,2.642,0.094  c0.297,0.016,0.593,0.028,0.89,0.046c1.285,0.077,2.569,0.18,3.854,0.299c0.494,0.047,0.989,0.097,1.483,0.15  c0.985,0.104,1.97,0.224,2.954,0.353c0.889,0.118,1.777,0.247,2.664,0.386c0.439,0.068,0.878,0.14,1.317,0.213  c0.637,0.107,1.275,0.216,1.91,0.333L388.916,371.391z" data-original="#000000" class="" style="fill:#000000"/></g> </svg>
