<?xml version="1.0"?>
<svg xmlns="http://www.w3.org/2000/svg" xmlns:xlink="http://www.w3.org/1999/xlink" version="1.1" id="Layer_1" x="0px" y="0px" viewBox="0 0 512 512" style="enable-background:new 0 0 512 512;" xml:space="preserve" width="512px" height="512px" class=""><g><path style="fill:#28CDB3" d="M256.004,504.483H131.184v-39.072c0-65.868,58.957-119.788,124.82-120.688  c65.862,0.901,124.82,54.82,124.82,120.688v39.072H256.004z" data-original="#68B9D8" class="" data-old_color="#68B9D8"/><path style="fill:#15907C" d="M256.004,344.723c-3.361,0.046-6.704,0.238-10.022,0.554  c61.704,5.889,114.798,57.628,114.798,120.135v39.072h20.044v-39.072C380.824,399.543,321.867,345.624,256.004,344.723z" data-original="#3695B2" class="" data-old_color="#3695B2"/><path style="fill:#FFC89F;" d="M256.004,344.825L256.004,344.825c32.809,0,59.653-26.843,59.653-59.653v-51.332  c0-32.808-26.843-59.653-59.653-59.653l0,0c-32.808,0-59.653,26.843-59.653,59.653v51.332  C196.352,317.981,223.195,344.825,256.004,344.825z" data-original="#FFC89F"/><path style="fill:#F7B081;" d="M256.004,174.189L256.004,174.189c-3.416,0-6.76,0.307-10.022,0.865  c28.079,4.804,49.63,29.394,49.63,58.788v51.332c0,29.394-21.552,53.983-49.63,58.788c3.262,0.558,6.607,0.865,10.022,0.865l0,0  c32.808,0,59.653-26.843,59.653-59.653v-51.332C315.656,201.032,288.813,174.189,256.004,174.189z" data-original="#F7B081"/><path style="fill:#F9F9F9" d="M270.332,380.053h-14.328h-14.328l-16.023-31.132c9.812-2.604,19.996-4.058,30.352-4.199  c10.356,0.141,20.54,1.596,30.352,4.199L270.332,380.053z" data-original="#D3333C" class="" data-old_color="#F8F7F7"/><path style="fill:#E1E0E0" d="M268.068,345.489l-17.78,34.564h5.717h14.328l16.023-31.132  C280.383,347.338,274.271,346.185,268.068,345.489z" data-original="#7F1B20" class="" data-old_color="#F2F2F2"/><polygon style="fill:#E5E3E3" points="256.004,480.493 225.062,452.173 241.676,380.053 256.004,380.053 270.332,380.053   286.946,452.173 " data-original="#F2464F" class="active-path" data-old_color="#E2E0E0"/><polygon style="fill:#F9F9F9" points="270.332,380.053 256.004,380.053 250.288,380.053 266.902,452.174 245.981,471.32   256.004,480.493 286.946,452.174 " data-original="#D3333C" class="" data-old_color="#F8F7F7"/><path id="SVGCleanerId_0" style="fill:#F7CB4F;" d="M103.895,66.284l15.511,31.429c0.953,1.931,2.795,3.269,4.926,3.579l34.684,5.04  c5.366,0.78,7.509,7.374,3.626,11.16l-25.098,24.464c-1.542,1.503-2.246,3.669-1.881,5.791l5.925,34.544  c0.917,5.345-4.693,9.42-9.493,6.897l-31.022-16.31c-1.906-1.002-4.183-1.002-6.089,0l-31.022,16.31  c-4.8,2.524-10.409-1.552-9.493-6.897l5.925-34.544c0.364-2.123-0.34-4.287-1.881-5.791l-25.098-24.464  c-3.884-3.785-1.741-10.38,3.626-11.16l34.684-5.04c2.131-0.31,3.973-1.648,4.926-3.579l15.511-31.429  C94.562,61.421,101.496,61.421,103.895,66.284z" data-original="#F7CB4F"/><g>
	<path id="SVGCleanerId_0_1_" style="fill:#F7CB4F;" d="M103.895,66.284l15.511,31.429c0.953,1.931,2.795,3.269,4.926,3.579   l34.684,5.04c5.366,0.78,7.509,7.374,3.626,11.16l-25.098,24.464c-1.542,1.503-2.246,3.669-1.881,5.791l5.925,34.544   c0.917,5.345-4.693,9.42-9.493,6.897l-31.022-16.31c-1.906-1.002-4.183-1.002-6.089,0l-31.022,16.31   c-4.8,2.524-10.409-1.552-9.493-6.897l5.925-34.544c0.364-2.123-0.34-4.287-1.881-5.791l-25.098-24.464   c-3.884-3.785-1.741-10.38,3.626-11.16l34.684-5.04c2.131-0.31,3.973-1.648,4.926-3.579l15.511-31.429   C94.562,61.421,101.496,61.421,103.895,66.284z" data-original="#F7CB4F"/>
</g><path style="fill:#FBAB00;" d="M162.644,117.492c3.883-3.785,1.74-10.38-3.626-11.16l-6.035-0.877l-32.288,31.473  c-1.984,1.935-2.89,4.722-2.422,7.454l7.077,41.258l6.748,3.548c4.8,2.524,10.409-1.552,9.493-6.897l-5.925-34.544  c-0.364-2.123,0.34-4.287,1.881-5.791L162.644,117.492z" data-original="#FBAB00"/><path id="SVGCleanerId_1" style="fill:#F7CB4F;" d="M262.013,11.164l15.511,31.429c0.953,1.931,2.795,3.269,4.926,3.579l34.684,5.04  c5.366,0.78,7.509,7.374,3.626,11.16l-25.098,24.465c-1.541,1.503-2.246,3.668-1.881,5.791l5.925,34.544  c0.917,5.345-4.693,9.42-9.493,6.897l-31.022-16.31c-1.906-1.002-4.183-1.002-6.089,0l-31.022,16.31  c-4.8,2.524-10.409-1.552-9.493-6.897l5.925-34.544c0.364-2.123-0.34-4.287-1.882-5.791L191.53,62.372  c-3.883-3.785-1.74-10.38,3.626-11.16l34.684-5.04c2.131-0.31,3.973-1.648,4.926-3.579l15.511-31.429  C252.679,6.301,259.613,6.301,262.013,11.164z" data-original="#F7CB4F"/><g>
	<path id="SVGCleanerId_1_1_" style="fill:#F7CB4F;" d="M262.013,11.164l15.511,31.429c0.953,1.931,2.795,3.269,4.926,3.579   l34.684,5.04c5.366,0.78,7.509,7.374,3.626,11.16l-25.098,24.465c-1.541,1.503-2.246,3.668-1.881,5.791l5.925,34.544   c0.917,5.345-4.693,9.42-9.493,6.897l-31.022-16.31c-1.906-1.002-4.183-1.002-6.089,0l-31.022,16.31   c-4.8,2.524-10.409-1.552-9.493-6.897l5.925-34.544c0.364-2.123-0.34-4.287-1.882-5.791L191.53,62.372   c-3.883-3.785-1.74-10.38,3.626-11.16l34.684-5.04c2.131-0.31,3.973-1.648,4.926-3.579l15.511-31.429   C252.679,6.301,259.613,6.301,262.013,11.164z" data-original="#F7CB4F"/>
</g><path style="fill:#FBAB00;" d="M320.761,62.372c3.883-3.785,1.74-10.38-3.626-11.16l-6.035-0.877l-32.288,31.473  c-1.984,1.934-2.89,4.722-2.422,7.454l7.077,41.258l6.748,3.548c4.8,2.524,10.409-1.552,9.493-6.897l-5.925-34.544  c-0.364-2.123,0.34-4.287,1.881-5.791L320.761,62.372z" data-original="#FBAB00"/><path id="SVGCleanerId_2" style="fill:#F7CB4F;" d="M419.839,66.284l15.511,31.429c0.953,1.931,2.795,3.269,4.926,3.579l34.684,5.04  c5.366,0.78,7.509,7.374,3.626,11.16l-25.098,24.464c-1.541,1.503-2.246,3.669-1.881,5.791l5.925,34.544  c0.917,5.345-4.693,9.42-9.493,6.897l-31.022-16.31c-1.906-1.002-4.183-1.002-6.089,0l-31.022,16.31  c-4.8,2.524-10.409-1.552-9.493-6.897l5.925-34.544c0.364-2.123-0.34-4.287-1.882-5.791l-25.098-24.464  c-3.884-3.785-1.741-10.38,3.626-11.16l34.684-5.04c2.131-0.31,3.973-1.648,4.926-3.579l15.511-31.429  C410.505,61.421,417.438,61.421,419.839,66.284z" data-original="#F7CB4F"/><g>
	<path id="SVGCleanerId_2_1_" style="fill:#F7CB4F;" d="M419.839,66.284l15.511,31.429c0.953,1.931,2.795,3.269,4.926,3.579   l34.684,5.04c5.366,0.78,7.509,7.374,3.626,11.16l-25.098,24.464c-1.541,1.503-2.246,3.669-1.881,5.791l5.925,34.544   c0.917,5.345-4.693,9.42-9.493,6.897l-31.022-16.31c-1.906-1.002-4.183-1.002-6.089,0l-31.022,16.31   c-4.8,2.524-10.409-1.552-9.493-6.897l5.925-34.544c0.364-2.123-0.34-4.287-1.882-5.791l-25.098-24.464   c-3.884-3.785-1.741-10.38,3.626-11.16l34.684-5.04c2.131-0.31,3.973-1.648,4.926-3.579l15.511-31.429   C410.505,61.421,417.438,61.421,419.839,66.284z" data-original="#F7CB4F"/>
</g><path style="fill:#FBAB00;" d="M478.586,117.492c3.884-3.785,1.741-10.38-3.626-11.16l-6.035-0.877l-32.288,31.473  c-1.984,1.935-2.89,4.722-2.422,7.454l7.077,41.258l6.748,3.548c4.8,2.524,10.409-1.552,9.493-6.897l-5.925-34.544  c-0.364-2.123,0.34-4.287,1.881-5.791L478.586,117.492z" data-original="#FBAB00"/><path d="M291.136,342.392c19.204-11.834,32.037-33.054,32.037-57.219v-51.332c0-37.037-30.131-67.168-67.169-67.168  c-37.037,0-67.169,30.131-67.169,67.168v51.332c0,24.165,12.832,45.384,32.037,57.219c-55.325,15.855-97.204,66.045-97.204,123.019  v39.072c0,4.151,3.365,7.517,7.517,7.517h50.636c4.151,0,7.517-3.365,7.517-7.517s-3.365-7.517-7.517-7.517H138.7v-31.556  c0-29.439,12.562-57.586,35.372-79.258c13.635-12.955,30.142-22.606,47.755-28.237l11.906,23.131l-15.996,69.438  c-0.608,2.64,0.252,5.403,2.25,7.232l30.942,28.319c1.436,1.314,3.255,1.971,5.074,1.971s3.639-0.657,5.075-1.971l30.942-28.319  c1.998-1.829,2.858-4.592,2.25-7.232l-15.996-69.439l11.906-23.131c17.612,5.631,34.119,15.283,47.755,28.237  c22.81,21.672,35.372,49.82,35.372,79.258v31.556H206.875c-4.151,0-7.517,3.365-7.517,7.517s3.365,7.517,7.517,7.517h173.949  c4.151,0,7.517-3.365,7.517-7.517V465.41C388.34,408.437,346.462,358.247,291.136,342.392z M203.869,285.173v-25.941  c46.442-3.164,63.616-34.93,63.616-34.93s11.364,29.928,40.655,34.575v26.297c0,28.072-22.305,51.022-50.123,52.084  c-0.636-0.018-1.272-0.041-1.91-0.05c-0.068-0.001-0.137-0.001-0.205,0c-0.638,0.009-1.274,0.032-1.91,0.05  C226.174,336.194,203.869,313.245,203.869,285.173z M256.004,470.304l-22.633-20.715l14.287-62.019h16.692l14.288,62.019  L256.004,470.304z M265.747,372.536h-19.486l-9.463-18.385c0.626-0.115,1.254-0.222,1.881-0.328c0.421-0.07,0.842-0.138,1.264-0.203  c0.928-0.145,1.857-0.279,2.788-0.401c0.935-0.121,1.871-0.236,2.808-0.335c0.499-0.053,0.998-0.104,1.497-0.151  c1.268-0.117,2.537-0.218,3.804-0.295c0.303-0.018,0.606-0.031,0.91-0.047c0.867-0.045,1.733-0.067,2.6-0.092  c0.552,0.013,1.1,0.042,1.655,0.042c0.555,0,1.103-0.029,1.655-0.042c0.866,0.025,1.733,0.048,2.6,0.092  c0.303,0.016,0.606,0.029,0.91,0.047c1.268,0.076,2.537,0.177,3.804,0.295c0.499,0.047,0.998,0.098,1.497,0.151  c0.936,0.099,1.872,0.214,2.808,0.335c0.93,0.122,1.86,0.257,2.788,0.401c0.421,0.065,0.842,0.134,1.264,0.203  c0.627,0.105,1.255,0.212,1.881,0.328L265.747,372.536z" data-original="#000000" class="" style="fill:#000000"/><path d="M143.404,194.771c4.361-3.169,6.504-8.438,5.592-13.75l-5.839-34.039l24.732-24.107c3.861-3.762,5.224-9.284,3.558-14.411  c-1.666-5.127-6.014-8.794-11.35-9.569l-34.178-4.967l-15.285-30.97c-2.385-4.834-7.217-7.837-12.608-7.837  c-5.39,0-10.222,3.004-12.607,7.837l-15.282,30.97l-34.179,4.967c-5.335,0.775-9.683,4.442-11.349,9.569  c-1.666,5.126-0.302,10.648,3.558,14.411l24.732,24.107l-5.839,34.04c-0.911,5.313,1.233,10.582,5.593,13.75  c2.464,1.79,5.348,2.7,8.25,2.7c2.234,0,4.481-0.539,6.556-1.63l30.569-16.071l30.568,16.071  C133.369,198.35,139.043,197.94,143.404,194.771z M98.028,164.611c-2.247,0-4.494,0.539-6.542,1.616L62.21,181.617l5.591-32.599  c0.783-4.562-0.73-9.214-4.044-12.444l-23.684-23.087l32.731-4.756c4.579-0.665,8.537-3.54,10.586-7.69l14.637-29.659l14.637,29.659  c2.049,4.15,6.005,7.024,10.585,7.69l32.731,4.756l-23.684,23.087c-3.313,3.23-4.826,7.881-4.044,12.444l5.591,32.599  l-29.276-15.391C102.523,165.149,100.276,164.611,98.028,164.611z" data-original="#000000" class="" style="fill:#000000"/><path d="M211.016,91.861l-5.838,34.04c-0.911,5.313,1.232,10.582,5.593,13.75c4.361,3.169,10.033,3.579,14.806,1.07l30.569-16.071  l30.57,16.071c2.076,1.09,4.321,1.63,6.554,1.63c2.903,0,5.786-0.91,8.25-2.7c4.362-3.169,6.504-8.438,5.593-13.75l-5.838-34.039  l24.732-24.107c3.861-3.762,5.223-9.285,3.558-14.412c-1.666-5.126-6.014-8.793-11.349-9.568l-34.178-4.967l-15.286-30.97  C266.367,3.004,261.537,0,256.146,0c-5.391,0-10.222,3.004-12.608,7.837l-15.285,30.97l-34.178,4.967  c-5.335,0.775-9.683,4.442-11.348,9.568c-1.666,5.126-0.303,10.648,3.557,14.412L211.016,91.861z M230.923,53.61  c4.58-0.666,8.538-3.541,10.585-7.691l14.637-29.659l14.637,29.658c2.048,4.151,6.005,7.025,10.586,7.692l32.731,4.756  l-23.684,23.087c-3.314,3.23-4.826,7.882-4.044,12.444l5.591,32.599l-29.277-15.392c-2.049-1.076-4.294-1.615-6.54-1.615  c-2.247,0-4.494,0.539-6.542,1.615l-29.276,15.391l5.591-32.599c0.783-4.562-0.73-9.214-4.043-12.443l-23.684-23.087L230.923,53.61z  " data-original="#000000" class="" style="fill:#000000"/><path d="M487.391,108.463c-1.666-5.127-6.014-8.793-11.349-9.569l-34.178-4.967l-15.284-30.97  c-2.385-4.834-7.217-7.837-12.608-7.837c-5.391,0-10.222,3.004-12.608,7.837l-15.285,30.97L351.9,98.894  c-5.335,0.775-9.683,4.442-11.349,9.569c-1.666,5.127-0.302,10.649,3.558,14.411l24.732,24.107l-5.838,34.04  c-0.911,5.313,1.232,10.582,5.593,13.75c2.464,1.79,5.347,2.7,8.25,2.7c2.234,0,4.48-0.539,6.555-1.63l30.569-16.071l30.569,16.07  c4.77,2.508,10.444,2.099,14.806-1.069c4.362-3.169,6.504-8.438,5.593-13.75l-5.838-34.04l24.731-24.107  C487.692,119.113,489.056,113.59,487.391,108.463z M448.242,136.574c-3.314,3.231-4.826,7.883-4.044,12.443l5.591,32.599  l-29.275-15.39c-2.049-1.077-4.295-1.617-6.543-1.617c-2.247,0-4.494,0.539-6.542,1.616l-29.276,15.391l5.591-32.598  c0.783-4.562-0.73-9.214-4.043-12.444l-23.684-23.087l32.732-4.756c4.58-0.665,8.537-3.541,10.584-7.69l14.637-29.66l14.638,29.661  c2.049,4.149,6.005,7.023,10.584,7.689l32.731,4.756L448.242,136.574z" data-original="#000000" class="" style="fill:#000000"/></g> </svg>
