<?xml version="1.0"?>
<svg xmlns="http://www.w3.org/2000/svg" xmlns:xlink="http://www.w3.org/1999/xlink" version="1.1" id="Layer_1" x="0px" y="0px" viewBox="0 0 512 512" style="enable-background:new 0 0 512 512;" xml:space="preserve" width="512px" height="512px" class=""><g><path style="fill:#1DBBA2" d="M504.112,127.622V96.248l-25.664-3.643c-1.985-8.114-5.184-15.752-9.405-22.703l15.572-20.725  l-22.184-22.184l-20.725,15.572c-6.951-4.22-14.587-7.42-22.703-9.405l-3.643-25.664h-31.374l-3.643,25.664  c-8.114,1.984-15.751,5.184-22.702,9.405l-20.725-15.572l-22.184,22.184l15.572,20.725c-4.22,6.951-7.42,14.588-9.405,22.703  l-25.664,3.643v31.374l25.664,3.643c1.985,8.114,5.184,15.752,9.405,22.703l-15.572,20.725l17.002,17.002  c11.107-13.278,27.777-21.765,46.337-21.765c17.619,0,33.538,7.644,44.609,19.778c6.749-1.992,13.136-4.826,19.026-8.402  l20.725,15.572l22.184-22.185l-15.572-20.725c4.22-6.951,7.42-14.588,9.405-22.703L504.112,127.622z M399.673,156.863  c-24.813,0-44.928-20.115-44.928-44.928c0-24.813,20.115-44.928,44.928-44.928c24.813,0,44.929,20.114,44.929,44.928  C444.602,136.748,424.487,156.863,399.673,156.863z" data-original="#353535" class="" data-old_color="#353535"/><g>
	<path style="fill:#0B8471" d="M334.767,111.935c0,24.813,20.115,44.928,44.928,44.928c3.435,0,6.776-0.399,9.989-1.129   c-20.003-4.544-34.939-22.422-34.939-43.8s14.936-39.256,34.939-43.8c-3.214-0.73-6.554-1.129-9.989-1.129   C354.881,67.007,334.767,87.122,334.767,111.935z" data-original="#232323" class="" data-old_color="#097463"/>
	<path style="fill:#0B8471" d="M504.112,127.622V96.248l-25.664-3.643c-1.985-8.114-5.184-15.752-9.405-22.703l15.572-20.725   l-22.184-22.184l-11.407,8.571l13.613,13.613l-15.572,20.725c4.22,6.951,7.42,14.588,9.405,22.703l25.664,3.643v31.374   l-25.664,3.643c-1.984,8.114-5.184,15.752-9.405,22.703l15.572,20.725l-13.613,13.613l11.407,8.572l22.184-22.185l-15.572-20.725   c4.22-6.951,7.42-14.588,9.405-22.703L504.112,127.622z" data-original="#232323" class="" data-old_color="#097463"/>
</g><path style="fill:#546F7A;" d="M290.736,307.408l30.6-4.343c-2.38-6.468-3.69-13.445-3.69-20.714V251.46l-26.91-3.82  c-3.068-12.545-8.014-24.352-14.539-35.097l24.074-32.04l-34.297-34.297l-32.04,24.074c-10.745-6.525-22.553-11.472-35.097-14.539  l-5.632-39.676h-48.504l-5.632,39.676c-12.545,3.068-24.352,8.014-35.097,14.539l-32.04-24.074l-34.297,34.297l24.074,32.04  c-6.525,10.745-11.472,22.553-14.539,35.097l-39.677,5.632v48.504l39.676,5.632c3.068,12.545,8.014,24.352,14.539,35.097  l-24.074,32.04l34.297,34.297l32.04-24.074c10.745,6.525,22.553,11.472,35.097,14.539l5.632,39.676h48.504l5.632-39.676  c12.545-3.068,24.352-8.014,35.097-14.539l32.04,24.074l1.418-1.418c7.905-13.603,18.442-25.682,30.825-35.616l-22.019-29.304  C282.722,331.76,287.669,319.952,290.736,307.408z M168.953,346.982c-38.361,0-69.459-31.098-69.459-69.458  c0-38.361,31.098-69.459,69.459-69.459s69.459,31.098,69.459,69.459C238.411,315.885,207.314,346.982,168.953,346.982z" data-original="#546F7A" class=""/><g>
	<path style="fill:#465A65;" d="M158.964,346.257c-33.626-4.845-59.469-33.766-59.469-68.733s25.843-63.889,59.469-68.733   c-3.264-0.47-6.596-0.725-9.989-0.725c-38.361,0-69.459,31.098-69.459,69.459s31.098,69.458,69.459,69.458   C152.368,346.982,155.7,346.727,158.964,346.257z" data-original="#465A65" class=""/>
	<path style="fill:#465A65;" d="M290.736,307.408l30.6-4.343c-2.38-6.468-3.69-13.445-3.69-20.714V251.46l-26.91-3.82   c-3.068-12.545-8.014-24.352-14.539-35.097l24.074-32.04l-34.297-34.297l-11.408,8.571l25.726,25.726l-24.074,32.04   c6.525,10.745,11.472,22.553,14.539,35.097l26.91,3.82v30.891c0,7.269,1.309,14.245,3.69,20.714l-30.6,4.343   c-3.068,12.545-8.014,24.352-14.539,35.097l22.018,29.304c-9.748,7.82-18.343,16.973-25.42,27.147l13.157,9.885l1.418-1.418   c7.905-13.603,18.442-25.682,30.825-35.616l-22.019-29.304C282.722,331.76,287.669,319.952,290.736,307.408z" data-original="#465A65" class=""/>
</g><path style="fill:#28CDB3" d="M378.072,504.503H251.634v-39.579c0-66.721,59.721-121.34,126.436-122.252  c66.715,0.912,126.436,55.53,126.436,122.252v39.579H378.072z" data-original="#68B9D8" class="" data-old_color="#1DBBA2"/><path style="fill:#15907C" d="M378.072,342.672c-3.182,0.044-6.346,0.211-9.49,0.494c62.786,5.656,116.947,58.218,116.947,121.757  v39.579h18.98v-39.579C504.508,398.202,444.787,343.584,378.072,342.672z" data-original="#3695B2" class="" data-old_color="#179B86"/><path style="fill:#FFC89F;" d="M378.072,342.775L378.072,342.775c33.233,0,60.425-27.191,60.425-60.425v-51.997  c0-33.233-27.191-60.425-60.425-60.425l0,0c-33.233,0-60.425,27.191-60.425,60.425v51.997  C317.646,315.584,344.837,342.775,378.072,342.775z" data-original="#FFC89F"/><path style="fill:#F7B081;" d="M378.072,169.928L378.072,169.928c-3.402,0-6.737,0.3-9.989,0.847  c28.522,4.798,50.436,29.746,50.436,59.578v51.997c0,29.831-21.914,54.779-50.436,59.578c3.253,0.547,6.587,0.847,9.989,0.847l0,0  c33.233,0,60.425-27.191,60.425-60.425v-51.997C438.496,197.12,411.305,169.928,378.072,169.928z" data-original="#F7B081" class=""/><path style="fill:#F4FDFD" d="M392.585,378.46h-14.513h-14.513l-16.232-31.534c9.939-2.637,20.255-4.111,30.745-4.253  c10.49,0.144,20.806,1.616,30.745,4.253L392.585,378.46z" data-original="#D3333C" class="" data-old_color="#F3FDFD"/><path style="fill:#E6E5E5" d="M388.312,343.249l-15.705,35.211h5.465h14.513l16.232-31.534  C402.132,345.152,395.274,343.92,388.312,343.249z" data-original="#7F1B20" class="active-path" data-old_color="#E4DFDF"/><polygon style="fill:#E6E5E6" points="378.072,480.201 346.728,451.514 363.558,378.46 378.072,378.46 392.585,378.46   409.414,451.514 " data-original="#F2464F" class="" data-old_color="#C0BCBF"/><polygon style="fill:#F4FDFD" points="392.585,378.46 378.072,378.46 372.606,378.46 389.435,451.514 368.082,471.058   378.072,480.201 409.414,451.514 " data-original="#D3333C" class="" data-old_color="#F3FDFD"/><path d="M413.365,340.355c19.547-11.938,32.624-33.472,32.624-58.005v-51.997c0-13.703-4.093-26.462-11.1-37.144  c2.117-0.916,4.206-1.889,6.241-2.966l16.799,12.623c1.342,1.008,2.924,1.502,4.499,1.502c1.929,0,3.848-0.742,5.3-2.195  l22.185-22.184c2.638-2.638,2.933-6.816,0.691-9.799l-12.622-16.798c2.609-4.921,4.744-10.073,6.38-15.4l20.803-2.954  c3.693-0.524,6.438-3.687,6.438-7.418V96.248c0-3.731-2.745-6.893-6.439-7.418l-20.802-2.953c-1.636-5.326-3.77-10.479-6.38-15.399  l12.622-16.798c2.241-2.983,1.946-7.16-0.691-9.798l-22.185-22.185c-2.64-2.639-6.817-2.933-9.798-0.692l-16.798,12.622  c-4.923-2.61-10.074-4.745-15.4-6.38l-2.953-20.803c-0.524-3.694-3.686-6.439-7.418-6.439h-31.373c-3.73,0-6.893,2.745-7.418,6.439  l-2.953,20.804c-5.326,1.635-10.478,3.77-15.4,6.379l-16.799-12.622c-2.98-2.242-7.158-1.946-9.798,0.692L309.434,43.88  c-2.638,2.638-2.933,6.816-0.691,9.798l12.622,16.798c-2.609,4.922-4.743,10.073-6.379,15.399l-20.803,2.953  c-3.694,0.524-6.439,3.687-6.439,7.418v31.373c0,3.731,2.745,6.893,6.438,7.418l20.804,2.954c1.636,5.327,3.769,10.479,6.379,15.4  l-12.622,16.798c-2.241,2.983-1.946,7.16,0.691,9.799l12.37,12.37c-7.35,10.851-11.649,23.929-11.649,37.994v12.476l-13.451-1.909  c-2.771-9.7-6.638-19.032-11.536-27.847l21.091-28.07c2.241-2.983,1.946-7.159-0.691-9.798l-34.297-34.297  c-2.64-2.639-6.818-2.933-9.798-0.692l-28.071,21.091c-8.816-4.898-18.146-8.763-27.846-11.536l-4.934-34.762  c-0.524-3.694-3.687-6.439-7.418-6.439h-48.504c-3.731,0-6.893,2.745-7.418,6.439l-4.934,34.762  c-9.7,2.772-19.032,6.638-27.846,11.536l-28.07-21.091c-2.983-2.242-7.159-1.946-9.798,0.692l-34.297,34.297  c-2.638,2.638-2.934,6.816-0.692,9.798l21.091,28.071c-4.898,8.816-8.763,18.147-11.535,27.846L6.44,245.854  C2.745,246.378,0,249.541,0,253.272v48.504c0,3.731,2.745,6.894,6.439,7.418l34.762,4.934c2.772,9.7,6.638,19.031,11.535,27.846  l-21.091,28.07c-2.242,2.983-1.946,7.16,0.692,9.798l34.297,34.298c2.638,2.639,6.815,2.932,9.798,0.692l28.07-21.091  c8.816,4.898,18.148,8.763,27.846,11.535l4.934,34.762c0.524,3.694,3.687,6.439,7.418,6.439h48.504c3.731,0,6.894-2.745,7.418-6.439  l4.934-34.761c9.701-2.772,19.031-6.638,27.846-11.536l23.433,17.607c-8.117,16.463-12.693,34.648-12.693,53.577v39.579  c0,4.138,3.354,7.492,7.492,7.492h56.777c4.139,0,7.492-3.354,7.492-7.492c0-4.138-3.353-7.492-7.492-7.492h-49.285v-32.087  c0-18.662,4.978-36.813,14.361-53.166c0.132-0.186,0.267-0.371,0.382-0.568c4.576-7.875,10.063-15.19,16.387-21.881  c0.102-0.108,0.202-0.218,0.305-0.326c1.156-1.214,2.343-2.403,3.554-3.575c0.155-0.151,0.309-0.302,0.464-0.452  c1.242-1.189,2.511-2.355,3.81-3.5c0.095-0.084,0.189-0.168,0.284-0.252c1.314-1.151,2.658-2.278,4.029-3.381  c12.184-9.801,26.118-17.25,40.811-21.935l12.128,23.564l-16.213,70.382c-0.606,2.631,0.251,5.385,2.243,7.208l31.342,28.686  c1.431,1.311,3.245,1.965,5.059,1.965c1.813,0,3.627-0.655,5.058-1.965l31.343-28.686c1.992-1.823,2.849-4.577,2.243-7.208  l-16.214-70.382l12.128-23.564c17.894,5.706,34.667,15.503,48.518,28.663c23.13,21.976,35.869,50.52,35.869,80.373v32.087h-163.63  c-4.139,0-7.492,3.354-7.492,7.492c0,4.138,3.353,7.492,7.492,7.492h171.124c4.139,0,7.492-3.354,7.492-7.492v-39.579  C512,407.176,469.485,356.317,413.365,340.355z M299.643,361.236l-14.473-19.262c4.898-8.816,8.764-18.147,11.536-27.846  l19.944-2.831c5.698,12.043,14.828,22.156,26.13,29.058C327.132,344.805,312.547,351.967,299.643,361.236z M380.115,335.231  c-0.647-0.018-1.293-0.042-1.942-0.051c-0.068-0.001-0.137-0.001-0.205,0c-0.649,0.009-1.295,0.033-1.942,0.051  c-21.797-0.833-40.254-14.899-47.545-34.381c-0.039-0.124-0.069-0.25-0.114-0.373c-0.801-2.176-1.454-4.391-1.958-6.636  c-0.003-0.011-0.005-0.022-0.008-0.034c-0.142-0.635-0.267-1.274-0.385-1.913c-0.04-0.216-0.079-0.433-0.117-0.649  c-0.089-0.518-0.169-1.039-0.242-1.559c-0.05-0.357-0.094-0.715-0.137-1.074c-0.051-0.429-0.102-0.857-0.142-1.287  c-0.046-0.488-0.08-0.981-0.112-1.473c-0.022-0.327-0.049-0.653-0.065-0.981c-0.039-0.834-0.064-1.673-0.064-2.517  c0-0.001,0-0.002,0-0.004v-26.127c47.148-3.199,64.582-35.446,64.582-35.446s11.54,30.389,41.284,35.088v26.484  C431.005,310.852,408.358,334.152,380.115,335.231z M302.727,121.119v-18.366l19.224-2.729c3.032-0.431,5.497-2.663,6.225-5.638  c1.779-7.271,4.649-14.2,8.532-20.594c1.589-2.618,1.425-5.941-0.415-8.389l-11.666-15.525l12.987-12.987l15.526,11.665  c2.448,1.839,5.769,2.004,8.388,0.415c6.395-3.883,13.324-6.753,20.592-8.531c2.975-0.727,5.207-3.193,5.639-6.224l2.729-19.225  h18.366l2.729,19.225c0.432,3.033,2.663,5.497,5.639,6.224c7.268,1.778,14.198,4.648,20.593,8.531  c2.619,1.591,5.942,1.425,8.388-0.415l15.525-11.665l12.987,12.987l-11.664,15.525c-1.84,2.449-2.004,5.771-0.414,8.389  c3.883,6.393,6.753,13.322,8.531,20.593c0.728,2.976,3.192,5.207,6.225,5.639l19.224,2.729v18.366l-19.225,2.729  c-3.032,0.431-5.496,2.663-6.223,5.638c-1.778,7.271-4.648,14.2-8.531,20.593c-1.59,2.618-1.426,5.941,0.414,8.389l11.665,15.525  l-12.987,12.987l-15.524-11.665c-1.328-0.998-2.912-1.502-4.502-1.502c-1.343,0-2.688,0.36-3.888,1.088  c-4.112,2.496-8.478,4.583-13.025,6.23c-10.705-10.165-24.698-16.891-40.208-18.374c-0.208-0.02-0.417-0.029-0.624-0.048  c-0.854-0.074-1.709-0.146-2.571-0.188c-1.103-0.055-2.209-0.084-3.317-0.084c-1.12,0-2.237,0.03-3.349,0.085  c-0.541,0.026-1.077,0.077-1.615,0.116c-0.554,0.041-1.11,0.073-1.662,0.127c-0.713,0.07-1.419,0.164-2.127,0.256  c-0.361,0.047-0.722,0.085-1.082,0.138c-0.822,0.12-1.635,0.264-2.447,0.413c-0.232,0.043-0.465,0.08-0.697,0.125  c-0.901,0.175-1.794,0.374-2.682,0.584c-0.134,0.032-0.269,0.061-0.403,0.093c-0.964,0.235-1.919,0.492-2.867,0.768  c-0.052,0.015-0.105,0.029-0.157,0.045c-10.385,3.047-19.741,8.51-27.422,15.741l-6.935-6.935l11.666-15.525  c1.84-2.448,2.004-5.771,0.415-8.389c-3.883-6.393-6.753-13.323-8.532-20.594c-0.728-2.975-3.193-5.206-6.223-5.638L302.727,121.119  z M264.272,398.193l-25.836-19.414c-2.448-1.84-5.772-2.005-8.389-0.415c-10.243,6.219-21.342,10.817-32.989,13.666  c-2.975,0.727-5.207,3.193-5.638,6.224l-4.718,33.237h-35.497l-4.718-33.237c-0.431-3.032-2.663-5.497-5.639-6.224  c-11.646-2.848-22.745-7.446-32.989-13.665c-2.617-1.59-5.94-1.426-8.389,0.415l-26.84,20.167l-25.101-25.101l20.168-26.84  c1.84-2.448,2.004-5.771,0.414-8.389c-6.219-10.244-10.817-21.343-13.665-32.989c-0.727-2.975-3.193-5.207-6.224-5.639  l-33.237-4.717v-35.496l33.238-4.718c3.032-0.431,5.497-2.663,6.224-5.639c2.848-11.646,7.446-22.746,13.665-32.989  c1.589-2.618,1.425-5.94-0.414-8.389l-20.168-26.84l25.101-25.1l26.84,20.167c2.448,1.839,5.771,2.003,8.389,0.415  c10.243-6.22,21.343-10.817,32.989-13.666c2.975-0.727,5.207-3.193,5.638-6.224l4.718-33.237h35.497l4.718,33.237  c0.431,3.032,2.663,5.497,5.638,6.224c11.648,2.849,22.747,7.447,32.989,13.666c2.619,1.59,5.941,1.425,8.389-0.415l26.84-20.167  l25.099,25.1l-20.167,26.84c-1.84,2.449-2.004,5.771-0.414,8.389c6.22,10.243,10.817,21.341,13.665,32.988  c0.727,2.976,3.192,5.207,6.224,5.639l20.471,2.906v24.387v0.001c0,1.208,0.034,2.408,0.097,3.601  c0.013,0.249,0.041,0.494,0.057,0.742c0.061,0.96,0.132,1.918,0.233,2.867c0.023,0.216,0.057,0.43,0.082,0.644  c0.116,1,0.247,1.994,0.406,2.98c0.022,0.135,0.05,0.269,0.072,0.404c0.182,1.09,0.389,2.17,0.622,3.242  c0.002,0.01,0.004,0.021,0.006,0.031l-22.046,3.129c-3.033,0.431-5.498,2.664-6.224,5.639c-2.848,11.646-7.445,22.745-13.666,32.989  c-1.589,2.618-1.425,5.94,0.415,8.389l17.741,23.612c-5.518,4.937-10.624,10.292-15.252,16.006c-0.377,0.464-0.746,0.93-1.116,1.397  c-0.367,0.465-0.728,0.933-1.089,1.402c-1.7,2.21-3.327,4.47-4.883,6.778c-0.028,0.042-0.056,0.083-0.084,0.125  C265.108,396.949,264.679,397.563,264.272,398.193z M378.072,470.044l-23.06-21.106l14.508-62.986h17.103l14.509,62.986  L378.072,470.044z M388.015,370.968h-19.887l-9.696-18.837c0.644-0.12,1.291-0.229,1.937-0.338c0.472-0.079,0.944-0.157,1.416-0.23  c0.809-0.127,1.62-0.248,2.431-0.357c1.071-0.143,2.142-0.273,3.214-0.387c0.489-0.053,0.98-0.102,1.47-0.149  c1.306-0.122,2.611-0.228,3.917-0.306c0.293-0.018,0.586-0.03,0.879-0.046c0.899-0.047,1.798-0.07,2.696-0.096  c0.559,0.014,1.115,0.043,1.677,0.043c0.562,0,1.118-0.029,1.677-0.043c0.899,0.026,1.797,0.049,2.696,0.096  c0.294,0.016,0.586,0.028,0.88,0.046c1.306,0.078,2.611,0.184,3.917,0.306c0.49,0.046,0.98,0.096,1.47,0.149  c1.072,0.114,2.143,0.243,3.213,0.386c0.812,0.11,1.623,0.231,2.433,0.358c0.473,0.073,0.944,0.151,1.415,0.23  c0.646,0.109,1.293,0.218,1.937,0.338L388.015,370.968z" data-original="#000000" class="" style="fill:#000000"/><path d="M399.673,164.355c28.905,0,52.422-23.516,52.422-52.42c0-28.905-23.516-52.42-52.422-52.42  c-4.139,0-7.492,3.354-7.492,7.492c0,4.138,3.353,7.492,7.492,7.492c20.643,0,37.438,16.794,37.438,37.436  s-16.795,37.436-37.438,37.436c-20.642,0-37.436-16.794-37.436-37.436c0-13.349,7.193-25.786,18.773-32.461  c3.585-2.067,4.816-6.648,2.75-10.233c-2.067-3.585-6.648-4.815-10.232-2.749c-16.208,9.342-26.275,26.754-26.275,45.443  C347.254,140.839,370.768,164.355,399.673,164.355z" data-original="#000000" class="" style="fill:#000000"/><path d="M168.953,200.573c-4.138,0-7.492,3.354-7.492,7.492c0,4.138,3.354,7.492,7.492,7.492c34.168,0,61.967,27.798,61.967,61.967  s-27.798,61.967-61.967,61.967s-61.967-27.798-61.967-61.967c0-26.02,16.431-49.446,40.887-58.292  c3.891-1.407,5.905-5.702,4.497-9.594c-1.407-3.892-5.703-5.905-9.594-4.497c-30.37,10.984-50.776,40.073-50.776,72.382  c0,42.431,34.52,76.95,76.95,76.95s76.95-34.52,76.95-76.95C245.903,235.093,211.383,200.573,168.953,200.573z" data-original="#000000" class="" style="fill:#000000"/></g> </svg>
