<?xml version="1.0"?>
<svg xmlns="http://www.w3.org/2000/svg" xmlns:xlink="http://www.w3.org/1999/xlink" version="1.1" id="Capa_1" x="0px" y="0px" viewBox="0 0 512 512" style="enable-background:new 0 0 512 512;" xml:space="preserve" width="512px" height="512px" class=""><g><path style="fill:#AFB5BC;" d="M502.953,407.319L440.408,78.177v264.961l-84.795,84.795h129.1  C496.26,427.932,504.995,418.06,502.953,407.319z" data-original="#AFB5BC"/><path style="fill:#969A9F;" d="M440.408,78.177v264.961l-84.795,84.795h29.286l70.651-70.651c3.751-3.751,5.858-8.839,5.858-14.144  V188.695L440.408,78.177z" data-original="#969A9F"/><path style="fill:#FFFFFF;" d="M441.408,343.137V78.177c0-7.393-5.993-13.386-13.386-13.386H20.64  c-7.393,0-13.386,5.993-13.386,13.386v356.646c0,7.393,5.993,13.386,13.386,13.386h315.697L441.408,343.137z" data-original="#FFFFFF"/><g>
	<path style="fill:#E4EAF8;" d="M27.255,434.822V78.177c0-7.393,5.993-13.386,13.386-13.386H20.639   c-7.393,0-13.386,5.993-13.386,13.386v356.646c0,7.393,5.993,13.386,13.386,13.386H40.64   C33.248,448.209,27.255,442.216,27.255,434.822z" data-original="#E4EAF8"/>
	<path style="fill:#E4EAF8;" d="M441.408,343.137h-91.685c-7.393,0-13.386,5.993-13.386,13.386v91.685L441.408,343.137z" data-original="#E4EAF8"/>
</g><path style="fill:#C2C7D0;" d="M356.338,356.524c0-7.393,5.993-13.386,13.386-13.386h-20.001c-7.393,0-13.386,5.993-13.386,13.386  v91.685l20.001-20.001V356.524z" data-original="#C2C7D0"/><path style="fill:#67DDD2" d="M428.022,63.79H20.64c-7.393,0-13.386,5.993-13.386,13.386v68.995h434.154V77.177  C441.408,69.783,435.415,63.79,428.022,63.79z" data-original="#ABFFDB" class="active-path" data-old_color="#WALL-C"/><path style="fill:#92E0C0;" d="M27.255,78.177c0-7.393,5.993-13.386,13.386-13.386H20.639c-7.393,0-13.386,5.993-13.386,13.386  v67.995h20.001V78.177z" data-original="#92E0C0"/><g>
	<circle style="fill:#FEA82F;" cx="184.45" cy="223.332" r="23.091" data-original="#FEA82F"/>
	<circle style="fill:#FEA82F;" cx="264.205" cy="223.332" r="23.091" data-original="#FEA82F"/>
	<circle style="fill:#FEA82F;" cx="343.969" cy="223.332" r="23.091" data-original="#FEA82F"/>
	<circle style="fill:#FEA82F;" cx="184.45" cy="297.956" r="23.091" data-original="#FEA82F"/>
	<circle style="fill:#FEA82F;" cx="343.969" cy="297.956" r="23.091" data-original="#FEA82F"/>
	<circle style="fill:#FEA82F;" cx="264.205" cy="297.956" r="23.091" data-original="#FEA82F"/>
	<circle style="fill:#FEA82F;" cx="264.205" cy="372.581" r="23.091" data-original="#FEA82F"/>
	<circle style="fill:#FEA82F;" cx="184.45" cy="372.581" r="23.091" data-original="#FEA82F"/>
</g><g>
	<path style="fill:#FF9052;" d="M181.36,223.33c0-9.171,5.346-17.093,13.092-20.82c-3.026-1.456-6.418-2.272-10.001-2.272   c-12.754,0-23.092,10.339-23.092,23.092s10.339,23.092,23.092,23.092c3.582,0,6.974-0.816,10.001-2.272   C186.707,240.423,181.36,232.502,181.36,223.33z" data-original="#FF9052" class=""/>
	<path style="fill:#FF9052;" d="M261.119,223.33c0-9.171,5.346-17.093,13.092-20.82c-3.026-1.456-6.417-2.272-10.001-2.272   c-12.754,0-23.092,10.339-23.092,23.092s10.339,23.092,23.092,23.092c3.583,0,6.974-0.816,10.001-2.272   C266.465,240.423,261.119,232.502,261.119,223.33z" data-original="#FF9052" class=""/>
	<path style="fill:#FF9052;" d="M340.878,223.33c0-9.171,5.346-17.093,13.092-20.82c-3.026-1.456-6.417-2.272-10.001-2.272   c-12.754,0-23.092,10.339-23.092,23.092s10.339,23.092,23.092,23.092c3.583,0,6.974-0.816,10.001-2.272   C346.225,240.423,340.878,232.502,340.878,223.33z" data-original="#FF9052" class=""/>
	<path style="fill:#FF9052;" d="M181.36,297.955c0-9.171,5.346-17.093,13.092-20.82c-3.026-1.456-6.418-2.272-10.001-2.272   c-12.754,0-23.092,10.339-23.092,23.092s10.339,23.092,23.092,23.092c3.582,0,6.974-0.816,10.001-2.272   C186.707,315.048,181.36,307.126,181.36,297.955z" data-original="#FF9052" class=""/>
	<path style="fill:#FF9052;" d="M340.878,297.955c0-9.171,5.346-17.093,13.092-20.82c-3.026-1.456-6.417-2.272-10.001-2.272   c-12.754,0-23.092,10.339-23.092,23.092s10.339,23.092,23.092,23.092c3.583,0,6.974-0.816,10.001-2.272   C346.225,315.048,340.878,307.126,340.878,297.955z" data-original="#FF9052" class=""/>
	<path style="fill:#FF9052;" d="M261.119,297.955c0-9.171,5.346-17.093,13.092-20.82c-3.026-1.456-6.417-2.272-10.001-2.272   c-12.754,0-23.092,10.339-23.092,23.092s10.339,23.092,23.092,23.092c3.583,0,6.974-0.816,10.001-2.272   C266.465,315.048,261.119,307.126,261.119,297.955z" data-original="#FF9052" class=""/>
	<path style="fill:#FF9052;" d="M261.119,372.581c0-9.171,5.346-17.093,13.092-20.82c-3.026-1.456-6.417-2.272-10.001-2.272   c-12.754,0-23.092,10.339-23.092,23.092c0,12.754,10.339,23.092,23.092,23.092c3.583,0,6.974-0.816,10.001-2.272   C266.465,389.674,261.119,381.751,261.119,372.581z" data-original="#FF9052" class=""/>
	<path style="fill:#FF9052;" d="M181.36,372.581c0-9.171,5.346-17.093,13.092-20.82c-3.026-1.456-6.418-2.272-10.001-2.272   c-12.754,0-23.092,10.339-23.092,23.092c0,12.754,10.339,23.092,23.092,23.092c3.582,0,6.974-0.816,10.001-2.272   C186.707,389.674,181.36,381.751,181.36,372.581z" data-original="#FF9052" class=""/>
</g><g>
	<path style="fill:#AFB5BC;" d="M83.308,244.463c1.464,1.464,3.384,2.196,5.303,2.196c1.919,0,3.839-0.732,5.304-2.197   l11.025-11.025l11.025,11.025c1.465,1.465,3.384,2.197,5.304,2.197c1.919,0,3.839-0.732,5.303-2.196   c2.93-2.93,2.93-7.678,0.001-10.607l-11.026-11.026l11.026-11.026c2.929-2.929,2.929-7.677-0.001-10.607   c-2.928-2.928-7.677-2.929-10.607,0.001l-11.025,11.025L93.916,201.2c-2.929-2.929-7.678-2.93-10.607-0.001   c-2.93,2.93-2.93,7.678-0.001,10.607l11.026,11.026l-11.026,11.026C80.378,236.785,80.378,241.533,83.308,244.463z" data-original="#AFB5BC"/>
	<path style="fill:#AFB5BC;" d="M83.308,319.089c1.464,1.464,3.384,2.196,5.303,2.196c1.919,0,3.839-0.732,5.304-2.197   l11.025-11.025l11.025,11.025c1.465,1.465,3.384,2.197,5.304,2.197c1.919,0,3.839-0.732,5.303-2.196   c2.93-2.93,2.93-7.678,0.001-10.607l-11.026-11.026l11.026-11.026c2.929-2.929,2.929-7.677-0.001-10.607   c-2.928-2.928-7.677-2.929-10.607,0.001l-11.025,11.025l-11.025-11.025c-2.929-2.93-7.678-2.929-10.607-0.001   c-2.93,2.93-2.93,7.678-0.001,10.607l11.026,11.026l-11.026,11.026C80.378,311.41,80.378,316.158,83.308,319.089z" data-original="#AFB5BC"/>
	<path style="fill:#AFB5BC;" d="M126.571,350.447c-2.93-2.928-7.678-2.928-10.608,0l-11.025,11.025l-11.025-11.025   c-2.93-2.928-7.678-2.928-10.608,0c-2.929,2.93-2.929,7.678,0,10.608l11.025,11.025l-11.025,11.025   c-2.929,2.93-2.929,7.678,0,10.608c1.465,1.464,3.385,2.196,5.304,2.196c1.919,0,3.839-0.732,5.304-2.196l11.025-11.025   l11.025,11.025c1.465,1.464,3.385,2.196,5.304,2.196s3.839-0.732,5.304-2.196c2.929-2.93,2.929-7.678,0-10.608l-11.025-11.025   l11.025-11.025C129.5,358.126,129.5,353.377,126.571,350.447z" data-original="#AFB5BC"/>
</g><path style="fill:#474D54" d="M511.569,421.227l-20.455-107.645c-0.773-4.069-4.708-6.741-8.77-5.968  c-4.069,0.773-6.741,4.699-5.968,8.77l20.455,107.645c1.144,6.025-3.943,11.712-10.872,11.712h-110.99l71.99-71.989  c1.317-1.317,2.196-3.241,2.196-5.304V173.133l20.569,108.248c0.773,4.069,4.703,6.742,8.77,5.968  c4.069-0.773,6.741-4.699,5.968-8.77L449.106,92.522c-0.509-11.069-9.647-19.923-20.838-19.923h-65.73V48.482  c0-4.143-3.357-7.5-7.5-7.5c-4.143,0-7.5,3.357-7.5,7.5v24.116h-50.23V48.482c0-4.143-3.357-7.5-7.5-7.5c-4.143,0-7.5,3.357-7.5,7.5  v24.116h-50.231V48.482c0-4.143-3.357-7.5-7.5-7.5c-4.143,0-7.5,3.357-7.5,7.5v24.116h-50.23V48.482c0-4.143-3.357-7.5-7.5-7.5  c-4.143,0-7.5,3.357-7.5,7.5v24.116h-50.23V48.482c0-4.143-3.357-7.5-7.5-7.5c-4.143,0-7.5,3.357-7.5,7.5v24.116H20.887  C9.37,72.599,0,81.968,0,93.486v356.646c0,11.517,9.37,20.886,20.887,20.886h186.19c4.143,0,7.5-3.357,7.5-7.5s-3.357-7.5-7.5-7.5  H20.887c-3.245,0-5.886-2.64-5.886-5.885V93.486c0-3.245,2.641-5.886,5.886-5.886h65.73v33.69c0,4.143,3.357,7.5,7.5,7.5  c4.143,0,7.5-3.357,7.5-7.5v-33.69h50.23v33.69c0,4.143,3.357,7.5,7.5,7.5c4.143,0,7.5-3.357,7.5-7.5v-33.69h50.23v33.69  c0,4.143,3.357,7.5,7.5,7.5c4.143,0,7.5-3.357,7.5-7.5v-33.69h50.231v33.69c0,4.143,3.357,7.5,7.5,7.5c4.143,0,7.5-3.357,7.5-7.5  v-33.69h50.23v33.69c0,4.143,3.357,7.5,7.5,7.5c4.143,0,7.5-3.357,7.5-7.5v-33.69h65.73c3.245,0,5.886,2.641,5.886,5.886v257.46  h-84.186c-11.517,0-20.886,9.37-20.886,20.887v84.185h-87.005c-4.143,0-7.5,3.357-7.5,7.5s3.357,7.5,7.5,7.5h94.505  c1.935,0,3.875-0.768,5.304-2.196l18.08-18.08h125.992C502.25,450.741,514.483,436.559,511.569,421.227z M344.083,445.41v-73.577  c0-3.245,2.64-5.886,5.885-5.886h73.578L344.083,445.41z" data-original="#474D54" class=""/></g> </svg>
