<?xml version="1.0"?>
<svg xmlns="http://www.w3.org/2000/svg" xmlns:xlink="http://www.w3.org/1999/xlink" version="1.1" id="Capa_1" x="0px" y="0px" viewBox="0 0 511.998 511.998" style="enable-background:new 0 0 511.998 511.998;" xml:space="preserve" width="512px" height="512px" class=""><g><polygon style="fill:#FFFFFF;" points="431.746,200.342 430.662,201.426 430.662,487.523 81.091,487.523 81.091,201.426   80.007,200.342 255.876,24.499 " data-original="#FFFFFF" class=""/><polygon style="fill:#E1EAF8;" points="81.091,245.06 255.876,70.3 430.662,245.06 430.662,201.426 431.746,200.342 255.876,24.499   80.007,200.342 81.091,201.426 " data-original="#E1EAF8"/><g>
	<polyline style="fill:#FFC843;" points="412.626,181.246 412.626,39.982 331.361,39.982 331.361,99.982  " data-original="#FFC843"/>
	<rect x="120.761" y="276.342" style="fill:#FFC843;" width="119.387" height="211.165" data-original="#FFC843"/>
</g><rect x="277.811" y="276.342" style="fill:#67DDD2" width="119.387" height="119.387" data-original="#76FFD9" class="" data-old_color="#76FFD9"/><rect x="217.119" y="133.702" style="fill:#67DDD2" width="77.509" height="77.509" data-original="#5DE0BF" class="active-path" data-old_color="#63BBA5"/><path style="fill:#434C54;" d="M112.082,478.703H90.016V202.928l76.954-76.954c3.44-3.44,3.44-9.017,0-12.455  c-3.44-3.44-9.017-3.44-12.455,0L2.58,265.452c-3.44,3.44-3.44,9.017,0,12.455c1.719,1.719,3.974,2.58,6.228,2.58  s4.508-0.86,6.228-2.58L72.4,220.543V487.51c0,4.864,3.944,8.808,8.808,8.808H430.79c4.864,0,8.808-3.944,8.808-8.808V220.544  l57.365,57.365c1.719,1.719,3.974,2.58,6.228,2.58s4.508-0.86,6.228-2.58c3.44-3.44,3.44-9.017,0-12.455L340.298,96.33V48.791  h63.648v95.567c0,4.864,3.944,8.808,8.808,8.808c4.864,0,8.808-3.944,8.808-8.808V39.983c0-4.864-3.944-8.808-8.808-8.808h-81.264  c-4.864,0-8.808,3.944-8.808,8.808v38.732l-60.455-60.455c-1.651-1.652-3.892-2.58-6.228-2.58c-2.336,0-4.577,0.928-6.228,2.58  l-73.351,73.351c-3.44,3.44-3.44,9.017,0,12.455c3.44,3.44,9.017,3.44,12.455,0L256,36.944l69.228,69.228  c0.023,0.025,0.048,0.048,0.072,0.072l96.683,96.683v275.775H249.082h-137V478.703z" data-original="#434C54" class=""/><circle style="fill:#969BA1;" cx="209.427" cy="381.496" r="8.808" data-original="#969BA1"/></g> </svg>
