<?xml version="1.0" encoding="iso-8859-1"?>
<!-- Generator: Adobe Illustrator 19.0.0, SVG Export Plug-In . SVG Version: 6.00 Build 0)  -->
<svg version="1.1" id="Layer_1" xmlns="http://www.w3.org/2000/svg" xmlns:xlink="http://www.w3.org/1999/xlink" x="0px" y="0px"
	 viewBox="0 0 512.002 512.002" style="enable-background:new 0 0 512.002 512.002;" xml:space="preserve">
<polygon style="fill:#CFDCE5;" points="385.564,149.36 384.936,149.988 384.936,382.134 182.042,382.134 182.042,149.988 
	181.413,149.36 283.488,47.299 "/>
<polyline style="fill:#FF6F52;" points="374.467,138.276 374.467,56.285 327.302,56.285 327.302,91.109 "/>
<rect x="250.357" y="187.694" style="fill:#FCD577;" width="66.264" height="93.245"/>
<path style="fill:#F9EADE;" d="M489.437,358.012L338.829,453.19c-15.14,9.561-33.219,13.357-50.917,10.683l-177.878-26.876
	c-9.144-1.377-18.496,0.671-26.228,5.753l-15.012,9.873L26.743,370.2L9.289,335.986c12.767-7.871,24.573-17.119,35.198-27.571
	c10.625-10.44,20.082-22.084,28.161-34.724c14.19-22.2,38.798-35.87,65.142-35.383c5.996,0.116,12.003,0.752,17.941,1.945
	l26.008,5.209v0.012l132.714,26.598c12.257,2.465,20.637,13.218,20.637,25.152c0,2.049-0.255,4.132-0.764,6.204
	c-3.322,13.369-16.332,21.957-29.92,19.746l-99.426-16.158c-1.32-0.208-2.616-0.313-3.912-0.313
	c-12.246,0-22.848,9.341-23.994,21.957c-1.146,12.558,7.57,23.867,20.001,25.973l114.519,19.399
	c10.174,1.725,20.637-0.058,29.677-5.046l116.533-64.436c4.757-2.627,9.908-3.877,15.012-3.877c10.29,0,20.313,5.116,26.216,14.364
	C508.292,329.55,503.986,348.822,489.437,358.012z"/>
<g>
	<path style="fill:#EDDFD6;" d="M181.739,245.461v0.012c0,0-61.357-0.486-97.817,63.741C70.148,333.486,48.434,354.03,26.743,370.2
		L9.289,335.986c12.767-7.871,24.573-17.119,35.198-27.571c10.625-10.44,20.082-22.084,28.161-34.724
		c14.19-22.2,38.798-35.87,65.142-35.383c5.996,0.116,12.003,0.752,17.941,1.945L181.739,245.461z"/>
	<path style="fill:#EDDFD6;" d="M343.612,367.683l47.987-78.643c5.832-9.543,16.047-14.892,26.557-14.892
		c4.889,0,9.85,1.167,14.457,3.594c11.9,6.268,18.038,19.146,16.295,31.728"/>
</g>
<path d="M145.55,196.902l27.203-27.203v49.557c0,4.794,3.886,8.681,8.681,8.681s8.681-3.887,8.681-8.681v-66.918l92.768-92.769
	l37.669,37.669c0.006,0.006,55.1,55.1,55.1,55.1v102.574c0,4.794,3.886,8.681,8.681,8.681s8.681-3.887,8.681-8.681V169.7
	l27.201,27.201c1.696,1.695,3.918,2.543,6.139,2.543s4.443-0.847,6.139-2.543c3.39-3.39,3.39-8.887,0-12.276l-49.948-49.948V56.286
	c0-4.794-3.886-8.681-8.681-8.681h-47.165c-4.795,0-8.681,3.887-8.681,8.681v13.865l-28.997-28.997c-3.391-3.39-8.887-3.39-12.277,0
	L133.272,184.626c-3.39,3.39-3.39,8.887,0,12.276C136.663,200.292,142.158,200.292,145.55,196.902z M335.379,64.967h29.803v52.349
	l-29.803-29.803V64.967z"/>
<path d="M316.013,253.083c4.795,0,8.681-3.887,8.681-8.681V187.69c0-4.794-3.886-8.681-8.681-8.681h-66.26
	c-4.795,0-8.681,3.887-8.681,8.681v46.296c0,4.794,3.886,8.681,8.681,8.681s8.681-3.887,8.681-8.681v-37.615h48.898v48.031
	C307.332,249.197,311.218,253.083,316.013,253.083z"/>
<path d="M505.744,310.364c-10.644-16.684-31.933-22.853-49.705-14.916c-2.73-10.688-9.853-20.052-19.985-25.389
	c-5.705-3.005-12.104-4.594-18.502-4.594c-13.979,0-26.676,7.121-33.967,19.051l-46.794,76.685l-0.328,0.182
	c-7.286,4.027-15.818,5.478-24.025,4.09l-114.517-19.398c-7.908-1.339-13.534-8.646-12.811-16.635
	c0.391-4.318,2.493-8.16,5.92-10.818c3.426-2.658,7.668-3.74,11.951-3.043l99.423,16.157c17.92,2.913,35.366-8.607,39.738-26.218
	c2.281-9.193,0.747-18.662-4.323-26.662c-5.071-8.001-12.977-13.432-22.264-15.293l-158.721-31.82
	c-6.404-1.284-12.962-1.995-19.49-2.115c-28.943-0.527-56.744,14.562-72.614,39.387c-15.359,24.025-36.314,44.625-60.6,59.57
	c-4.082,2.513-5.357,7.86-2.844,11.943c2.514,4.084,7.859,5.357,11.943,2.844c26.501-16.309,49.368-38.786,66.13-65.005
	c12.429-19.442,33.992-31.39,56.502-31.39c0.387,0,0.778,0.003,1.164,0.01c5.492,0.101,11.009,0.699,16.397,1.779l158.72,31.82
	c4.594,0.921,8.505,3.608,11.012,7.564c2.508,3.956,3.266,8.639,2.139,13.187c-2.212,8.91-11.051,14.734-20.102,13.263
	l-99.423-16.157c-8.963-1.457-18.207,0.899-25.377,6.461c-7.169,5.562-11.752,13.933-12.571,22.971
	c-1.536,16.96,10.414,32.475,27.204,35.319l114.516,19.398c12.063,2.044,24.613-0.091,35.326-6.014l116.533-64.428
	c10.318-5.704,23.367-2.388,29.71,7.552c3.227,5.058,4.284,11.068,2.976,16.922c-1.307,5.856-4.82,10.844-9.892,14.049
	L333.591,445.85c-13.371,8.449-29.344,11.803-44.986,9.439l-89.993-13.595c-4.749-0.712-9.164,2.548-9.88,7.287
	c-0.715,4.74,2.546,9.164,7.287,9.88l89.993,13.596c4.132,0.624,8.283,0.933,12.42,0.933c15.645,0,31.071-4.416,44.436-12.862
	l150.604-95.177c9.003-5.69,15.24-14.548,17.561-24.943C513.354,330.013,511.474,319.343,505.744,310.364z M398.404,293.565
	c4.109-6.724,11.267-10.738,19.149-10.738c3.592,0,7.191,0.896,10.411,2.593c7.091,3.735,11.551,10.974,11.913,18.79l-72.39,40.021
	L398.404,293.565z"/>
<path d="M169.242,437.255l-58.511-8.84c-11.288-1.706-22.757,0.81-32.294,7.084l-15.015,9.874
	c-4.006,2.634-5.117,8.017-2.484,12.022c1.668,2.536,4.438,3.912,7.261,3.912c1.637,0,3.293-0.462,4.762-1.429l15.015-9.874
	c5.954-3.916,13.109-5.487,20.162-4.421l58.511,8.839c4.735,0.712,9.164-2.546,9.88-7.286
	C177.244,442.395,173.982,437.972,169.242,437.255z"/>
<g>
</g>
<g>
</g>
<g>
</g>
<g>
</g>
<g>
</g>
<g>
</g>
<g>
</g>
<g>
</g>
<g>
</g>
<g>
</g>
<g>
</g>
<g>
</g>
<g>
</g>
<g>
</g>
<g>
</g>
</svg>
