<?xml version="1.0"?>
<svg xmlns="http://www.w3.org/2000/svg" xmlns:xlink="http://www.w3.org/1999/xlink" version="1.1" id="Capa_1" x="0px" y="0px" viewBox="0 0 512 512" style="enable-background:new 0 0 512 512;" xml:space="preserve" width="512px" height="512px" class=""><g><rect x="45.863" y="195.747" style="fill:#FFFFFF;" width="420.017" height="293.661" data-original="#FFFFFF" class=""/><rect x="45.863" y="195.747" style="fill:#67DDD2" width="420.017" height="31.589" data-original="#76FFD9" class="" data-old_color="#REAL-E"/><polygon style="fill:#FFC843;" points="503.097,195.747 8.646,195.747 52.964,102.501 69.332,68.069 442.411,68.069 " data-original="#FFC843"/><polygon style="fill:#EAC36E;" points="110.538,68.069 97.341,125.549 52.964,102.501 69.332,68.069 " data-original="#EAC36E"/><rect x="97.341" y="22.592" style="fill:#FFA816;" width="79.558" height="102.957" data-original="#FFA816"/><rect x="97.341" y="22.592" style="fill:#FFFFFF;" width="79.558" height="31.729" data-original="#FFFFFF" class=""/><rect x="86.811" y="258.925" style="fill:#4BD8CC" width="138.056" height="120.506" data-original="#5DE0BF" class="active-path" data-old_color="#4AD8CC"/><polygon style="fill:#67DDD2" points="224.867,258.93 224.867,379.436 128.545,379.436 169.013,258.93 " data-original="#76FFD9" class="" data-old_color="#REAL-E"/><rect x="73.357" y="379.431" style="fill:#C1C8D2;" width="164.965" height="29.249" data-original="#C1C8D2" class=""/><rect x="286.875" y="258.925" style="fill:#4BD8CC" width="138.056" height="120.506" data-original="#5DE0BF" class="active-path" data-old_color="#4AD8CC"/><polygon style="fill:#67DDD2" points="424.934,258.93 424.934,379.436 328.61,379.436 369.08,258.93 " data-original="#76FFD9" class="" data-old_color="#REAL-E"/><rect x="273.421" y="379.431" style="fill:#C1C8D2;" width="164.965" height="29.249" data-original="#C1C8D2" class=""/><g>
	<path style="fill:#434C54" d="M202.182,76.843h234.812l15.837,33.318c1.502,3.161,4.649,5.01,7.93,5.01   c1.262,0,2.546-0.274,3.761-0.852c4.377-2.08,6.238-7.315,4.158-11.691l-18.216-38.326c-1.453-3.058-4.538-5.007-7.924-5.007   H202.182c-4.847,0-8.775,3.929-8.775,8.775C193.407,72.916,197.336,76.843,202.182,76.843z" data-original="#434C54" class=""/>
	<path style="fill:#434C54" d="M511.15,191.98l-32.609-68.608c-2.08-4.377-7.316-6.237-11.691-4.158   c-4.377,2.08-6.238,7.315-4.158,11.691l26.647,56.067H22.661L75.005,76.843h13.69v48.706c0,4.846,3.928,8.775,8.775,8.775h79.558   c4.847,0,8.775-3.929,8.775-8.775V22.592c0-4.846-3.928-8.775-8.775-8.775H97.47c-4.847,0-8.775,3.929-8.775,8.775v36.702H69.461   c-3.387,0-6.471,1.949-7.924,5.009L0.85,191.98c-1.292,2.718-1.101,5.909,0.508,8.454c1.608,2.545,4.408,4.088,7.418,4.088h448.459   v276.112H54.766V222.802c0-4.846-3.928-8.775-8.775-8.775s-8.775,3.929-8.775,8.775v266.606c0,4.846,3.928,8.775,8.775,8.775   h420.017c4.847,0,8.775-3.929,8.775-8.775V204.522h28.442c3.009,0,5.81-1.543,7.418-4.088   C512.252,197.889,512.442,194.699,511.15,191.98z M106.245,63.102V45.553V31.367h62.008v14.186v17.549v53.672h-62.008V63.102z" data-original="#434C54" class=""/>
</g></g> </svg>
