<?xml version="1.0"?>
<svg xmlns="http://www.w3.org/2000/svg" xmlns:xlink="http://www.w3.org/1999/xlink" version="1.1" id="Capa_1" x="0px" y="0px" viewBox="0 0 512 512" style="enable-background:new 0 0 512 512;" xml:space="preserve" width="512px" height="512px" class=""><g><path style="fill:#92E0C0;" d="M374.933,69.868c-7.997,0-226.465,0-237.88,0c-6.91,0-12.512,5.601-12.512,12.512v19.707  c11.057,0,253.05,0,262.904,0V82.38C387.445,75.47,381.843,69.868,374.933,69.868z" data-original="#92E0C0" class=""/><path style="fill:#6DC296;" d="M157.055,69.868c-10.898,0-18.156,0-20.001,0c-6.91,0-12.512,5.601-12.512,12.512v19.707  c1.71,0,8.952,0,20.001,0V82.38C144.542,75.47,150.144,69.868,157.055,69.868z" data-original="#6DC296" class=""/><path style="fill:#FFFFFF;" d="M491.98,99.086c-4.42,0-446.028,0-471.975,0c-6.909,0-12.512,5.601-12.512,12.512v372.749  c0,6.91,5.602,12.512,12.512,12.512H491.98c6.91,0,12.512-5.601,12.512-12.512V111.598C504.493,104.689,498.89,99.086,491.98,99.086  z" data-original="#FFFFFF" class=""/><path style="fill:#E4EAF8;" d="M27.495,484.348v-372.75c0-6.91,5.602-12.512,12.512-12.512c-10.385,0-17.355,0-20.001,0  c-6.909,0-12.512,5.601-12.512,12.512v372.749c0,6.91,5.602,12.512,12.512,12.512h20.001  C33.097,496.86,27.495,491.257,27.495,484.348z" data-original="#E4EAF8" class=""/><path style="fill:#67DDD2" d="M284.144,15.141h-56.302c-6.221,0-11.265,5.043-11.265,11.265v98.188h78.831V26.406  C295.409,20.185,290.366,15.141,284.144,15.141z" data-original="#FFC850" class="" data-old_color="#FFC850"/><path style="fill:#44B7AC" d="M247.843,15.141h-20.001c-6.221,0-11.265,5.043-11.265,11.265v98.189h20.001V26.406  C236.578,20.185,241.622,15.141,247.843,15.141z" data-original="#FEA82F" class="active-path" data-old_color="#67DDD2"/><path style="fill:#67DDD2" d="M267.767,165H71.816c-7.894,0-14.355,6.459-14.355,14.355v254.375  c0,7.895,6.459,14.355,14.355,14.355h195.952c7.895,0,14.355-6.459,14.355-14.355V179.355C282.122,171.46,275.663,165,267.767,165z" data-original="#FFC850" class="" data-old_color="#FFC850"/><path style="fill:#44B7AC" d="M73.462,433.731V179.355c0-7.894,6.459-14.355,14.355-14.355H71.816  c-7.895,0-14.355,6.459-14.355,14.355v254.375c0,7.895,6.459,14.355,14.355,14.355h16.001  C79.922,448.085,73.462,441.625,73.462,433.731z" data-original="#FEA82F" class="active-path" data-old_color="#67DDD2"/><path style="fill:#FF9052;" d="M169.243,187.126c-32.119,0-58.156,26.037-58.156,58.156v23.013c3.887-3.603,9.416-5.561,14.814-4.84  v-2.898c0-2.304,1.967-4.123,4.247-3.95c22.484,1.615,45.368-5.529,62.669-16.832c1.615-1.055,3.754-0.793,5.066,0.618  c14.792,15.9,14.703,15.284,14.703,17.36v5.69c5.916-0.887,11.165,0.942,14.811,4.331V245.28  C227.399,213.162,201.363,187.126,169.243,187.126z" data-original="#FF9052"/><path style="fill:#FF8031;" d="M126.697,245.281c0-29.471,21.925-53.804,50.351-57.619c-2.554-0.343-5.156-0.536-7.804-0.536  c-32.119,0-58.156,26.037-58.156,58.156v23.013c3.886-3.603,9.416-5.56,14.814-4.84v-2.898c0-0.895,0.299-1.714,0.796-2.374  L126.697,245.281L126.697,245.281z" data-original="#FF8031"/><g>
	<path style="fill:#FFBEAB;" d="M211.817,261.131v31.858c0,0.345-0.018,0.686-0.026,1.03c11.274,1.707,20.103-6.438,20.103-16.443   C231.894,267.553,223.058,259.447,211.817,261.131z" data-original="#FFBEAB"/>
	<path style="fill:#FFBEAB;" d="M126.672,292.989v-31.845c-9.815-1.311-20.077,6.221-20.077,16.433   c0,9.991,8.81,18.151,20.102,16.442C126.689,293.676,126.672,293.333,126.672,292.989z" data-original="#FFBEAB"/>
</g><g>
	<path style="fill:#C2C7D0;" d="M225.921,264.844c-3.603-2.989-8.56-4.542-14.104-3.712v31.858c0,0.345-0.018,0.686-0.026,1.03   c5.561,0.842,10.525-0.716,14.13-3.709V264.844z" data-original="#C2C7D0"/>
	<path style="fill:#C2C7D0;" d="M126.672,290.312c-3.705-3.076-5.973-7.669-5.973-12.735c0-4.929,2.395-9.231,5.973-12.218v-4.215   c-9.815-1.311-20.077,6.222-20.077,16.433c0,9.991,8.81,18.151,20.102,16.442c-0.008-0.344-0.025-0.686-0.025-1.03   C126.672,292.989,126.672,290.312,126.672,290.312z" data-original="#C2C7D0"/>
</g><path style="fill:#E4EAF8;" d="M145.458,328.048v22.823l24.3,29.996l24.3-29.996v-23.467  C178.881,337.875,159.242,336.856,145.458,328.048z" data-original="#E4EAF8" class=""/><path style="fill:#C2C7D0;" d="M161.021,334.139c-5.793-1.075-11.02-3.187-15.563-6.09v22.823l15.563,19.21V334.139z" data-original="#C2C7D0"/><path style="fill:#FFFFFF;" d="M258.346,374.228l-64.287-24.897l-24.3,29.996l-24.301-29.996l-64.219,24.897  c0,0-23.777,9.776-23.777,36.88v24.624c0.001,7.895,6.46,14.353,14.355,14.353h195.952c7.895,0,14.355-6.459,14.355-14.355v-24.622  C282.122,384.003,258.346,374.228,258.346,374.228z" data-original="#FFFFFF" class=""/><path style="fill:#ABFFDB;" d="M73.024,450.085v-45.98c0-18.597,11.191-29.034,18.218-33.755l-10.004,3.878  c0,0-23.777,9.775-23.777,36.88v24.622C57.461,442.719,62.616,450.085,73.024,450.085z" data-original="#ABFFDB"/><path style="fill:#FFFFFF;" d="M197.885,238.852c-1.313-1.411-3.451-1.673-5.066-0.618c-17.301,11.303-40.184,18.447-62.669,16.832  c-2.28-0.173-4.248,1.647-4.248,3.95v34.743c0,22.329,17.496,42.724,43.962,42.724c23.558,0,42.725-19.166,42.725-42.724v-37.547  C212.588,254.136,212.677,254.751,197.885,238.852z" data-original="#FFFFFF" class=""/><path style="fill:#E4EAF8;" d="M141.465,293.759v-38.603c-3.764,0.2-7.545,0.181-11.315-0.09c-2.28-0.173-4.248,1.647-4.248,3.95  v34.743c0,26.781,24.121,46.692,51.124,42.112C156.868,332.453,141.465,314.876,141.465,293.759z" data-original="#E4EAF8" class=""/><g>
	<path style="fill:#ABFFDB;" d="M199.099,394.739l18.171-36.418l-23.212-8.99l-24.3,29.996l23.692,16.826   C195.368,397.516,198.049,396.845,199.099,394.739z" data-original="#ABFFDB"/>
	<path style="fill:#ABFFDB;" d="M140.451,394.739l-18.171-36.418l23.212-8.99l24.3,29.996L146.1,396.153   C144.182,397.516,141.502,396.845,140.451,394.739z" data-original="#ABFFDB"/>
</g><path style="fill:#6DC296;" d="M169.789,379.347v-0.021l-0.015,0.01l-0.015-0.01v0.021l-17.232,12.239l8.146,12.259  c6.568,0,11.634,0,18.203,0l8.145-12.259L169.789,379.347z" data-original="#6DC296" class=""/><path style="fill:#5FA77E;" d="M178.398,385.462l-8.609-6.114v-0.021l-0.014,0.01l-0.015-0.01v0.021l-17.232,12.239l8.146,12.259  c6.338,0,11.26,0,17.246,0l-6.688-10.066c-0.812-1.222-0.507-2.868,0.69-3.718L178.398,385.462z" data-original="#5FA77E"/><path style="fill:#ABFFDB;" d="M160.674,403.845l-6.263,46.24h30.729l-6.263-46.24C172.306,403.845,167.244,403.845,160.674,403.845  z" data-original="#ABFFDB"/><g>
	<path style="fill:#92E0C0;" d="M160.674,403.845l-6.263,46.24h17.247l6.263-46.24C171.907,403.845,167.035,403.845,160.674,403.845   z" data-original="#92E0C0" class=""/>
	<path style="fill:#92E0C0;" d="M441.513,181.262h-98.236c-6.125,0-11.091,4.965-11.091,11.091v7.036   c0,6.125,4.965,11.091,11.091,11.091h98.236c6.125,0,11.091-4.965,11.091-11.091v-7.036   C452.603,186.228,447.637,181.262,441.513,181.262z" data-original="#92E0C0" class=""/>
</g><path style="fill:#6DC296;" d="M441.513,194.282h-98.236c-4.49,0-8.347-2.673-10.093-6.51c-0.635,1.398-0.999,2.945-0.999,4.581  v7.036c0,6.125,4.965,11.091,11.091,11.091h98.236c6.125,0,11.091-4.965,11.091-11.091v-7.036c0-1.635-0.363-3.183-0.999-4.581  C449.86,191.609,446.002,194.282,441.513,194.282z" data-original="#6DC296" class=""/><g>
	<path style="fill:#AFB5BC;" d="M452.61,260.258H332.192c-4.143,0-7.5-3.358-7.5-7.5c0-4.142,3.357-7.5,7.5-7.5H452.61   c4.143,0,7.5,3.358,7.5,7.5C460.111,256.9,456.754,260.258,452.61,260.258z" data-original="#AFB5BC" class=""/>
	<path style="fill:#AFB5BC;" d="M452.61,299.75H332.192c-4.143,0-7.5-3.358-7.5-7.5s3.357-7.5,7.5-7.5H452.61   c4.143,0,7.5,3.358,7.5,7.5S456.754,299.75,452.61,299.75z" data-original="#AFB5BC" class=""/>
	<path style="fill:#AFB5BC;" d="M452.61,339.242H332.192c-4.143,0-7.5-3.358-7.5-7.5c0-4.142,3.357-7.5,7.5-7.5H452.61   c4.143,0,7.5,3.358,7.5,7.5C460.111,335.884,456.754,339.242,452.61,339.242z" data-original="#AFB5BC" class=""/>
	<path style="fill:#AFB5BC;" d="M452.61,378.733H332.192c-4.143,0-7.5-3.358-7.5-7.5s3.357-7.5,7.5-7.5H452.61   c4.143,0,7.5,3.358,7.5,7.5S456.754,378.733,452.61,378.733z" data-original="#AFB5BC" class=""/>
	<path style="fill:#AFB5BC;" d="M452.61,418.226H332.192c-4.143,0-7.5-3.358-7.5-7.5s3.357-7.5,7.5-7.5H452.61   c4.143,0,7.5,3.358,7.5,7.5S456.754,418.226,452.61,418.226z" data-original="#AFB5BC" class=""/>
</g><g>
	<path style="fill:#474D54;" d="M78.534,367.235c-0.047,0.018-0.094,0.037-0.141,0.056c-1.161,0.477-28.426,12.051-28.426,43.817   v24.622c0,12.051,9.804,21.855,21.855,21.855h195.951c12.052,0,21.855-9.804,21.855-21.855v-24.622   c0-31.767-27.267-43.34-28.427-43.817c-0.048-0.02-0.095-0.039-0.143-0.057l-59.495-23.041v-11.502   c9.224-7.523,15.733-18.252,17.815-30.471c4.612-0.694,8.924-2.619,12.431-5.636c5.313-4.568,8.359-11.216,8.359-18.236   c0-5.518-1.882-10.806-5.266-15.033v-18.032c0-36.203-29.453-65.657-65.656-65.657s-65.656,29.454-65.656,65.657v18.51   c-3.418,4.171-5.263,9.217-5.263,14.555c0,7.021,3.047,13.669,8.36,18.238c3.563,3.064,7.819,4.983,12.419,5.66   c2.133,12.727,9.006,23.698,18.855,31.195v10.754L78.534,367.235z M146.516,442.584h-41.079v-22.159c0-4.142-3.358-7.5-7.5-7.5   s-7.5,3.358-7.5,7.5v22.159H71.822c-3.779,0-6.854-3.075-6.854-6.854v-24.622c0-21.269,17.913-29.415,19.09-29.927l34.564-13.401   l15.122,30.307c0,0,0,0,0,0.001c1.48,2.966,4.174,5.128,7.389,5.933c0.911,0.228,1.835,0.34,2.755,0.34   c2.327,0,4.62-0.718,6.558-2.094l0.121-0.086l2.219,3.34L146.516,442.584z M161.731,442.584l5.288-31.239h5.527l5.287,31.239   H161.731z M169.781,367.391l-16.817-20.758v-4.865c5.109,1.474,10.759,2.216,16.905,2.216c0.198,0,0.396-0.001,0.594-0.004   c0.07-0.001,0.14-0.002,0.21-0.003c0.131-0.002,0.262-0.004,0.393-0.008c0.078-0.002,0.156-0.004,0.234-0.006   c0.124-0.003,0.247-0.007,0.371-0.012c0.078-0.003,0.155-0.006,0.233-0.009c0.128-0.005,0.256-0.011,0.384-0.017   c0.073-0.004,0.145-0.007,0.217-0.01c0.165-0.009,0.329-0.018,0.494-0.028c0.07-0.004,0.139-0.009,0.209-0.013   c0.153-0.01,0.306-0.021,0.459-0.032c0.084-0.006,0.168-0.013,0.252-0.02c0.111-0.009,0.221-0.018,0.331-0.027   c0.094-0.008,0.187-0.017,0.28-0.025c0.102-0.01,0.203-0.019,0.305-0.029c0.094-0.009,0.188-0.019,0.281-0.028   c0.106-0.011,0.211-0.023,0.317-0.034c0.089-0.01,0.178-0.02,0.267-0.03c0.108-0.013,0.217-0.026,0.325-0.039   c0.16-0.02,0.32-0.04,0.48-0.062c0.106-0.014,0.212-0.028,0.317-0.042c0.099-0.014,0.198-0.028,0.297-0.043   c0.091-0.013,0.183-0.026,0.274-0.04c0.105-0.016,0.21-0.032,0.315-0.049c0.085-0.013,0.17-0.027,0.254-0.041   c0.106-0.017,0.211-0.035,0.316-0.052c0.086-0.014,0.171-0.029,0.256-0.044c0.105-0.018,0.21-0.037,0.315-0.056   c0.082-0.015,0.164-0.03,0.246-0.046c0.107-0.02,0.215-0.04,0.322-0.06c0.063-0.012,0.125-0.025,0.187-0.037   c0.221-0.044,0.441-0.089,0.661-0.135c0.076-0.016,0.151-0.032,0.227-0.048c0.111-0.024,0.222-0.049,0.332-0.073   c0.076-0.017,0.153-0.034,0.229-0.051c0.107-0.025,0.214-0.05,0.321-0.075c0.081-0.019,0.162-0.038,0.243-0.058   c0.105-0.025,0.209-0.051,0.314-0.077c0.078-0.019,0.156-0.039,0.234-0.059c0.109-0.028,0.218-0.055,0.327-0.083   c0.06-0.016,0.12-0.032,0.18-0.048c0.421-0.111,0.839-0.227,1.256-0.349c0.049-0.015,0.099-0.029,0.148-0.043   c0.126-0.037,0.251-0.075,0.376-0.113c0.053-0.016,0.107-0.032,0.16-0.049c0.127-0.039,0.254-0.079,0.381-0.119   c0.047-0.015,0.094-0.03,0.142-0.045c0.131-0.042,0.263-0.084,0.394-0.128c0.036-0.012,0.073-0.024,0.109-0.036   c0.31-0.103,0.618-0.207,0.925-0.316v5.542L169.781,367.391z M176.757,393.492l-1.895,2.853h-10.16l-1.895-2.852l6.975-4.953   L176.757,393.492z M255.542,381.184c1.012,0.438,19.086,8.602,19.086,29.925v24.622c0,3.779-3.075,6.854-6.854,6.854h-18.611   v-22.159c0-4.142-3.357-7.5-7.5-7.5c-4.142,0-7.5,3.358-7.5,7.5v22.159h-41.114l-6.273-37.063l2.218-3.339l0.122,0.086   c1.938,1.375,4.23,2.094,6.558,2.094c0.919,0,1.845-0.112,2.755-0.34c3.215-0.805,5.909-2.967,7.389-5.933c0,0,0,0,0-0.001   l15.122-30.306L255.542,381.184z M206.89,362.341l-12.582,25.217l-2.87-2.039c-0.022-0.016-0.044-0.032-0.066-0.048l-10.747-7.632   l15.829-19.539L206.89,362.341z M220.095,270.208c0.042,0.021,0.084,0.041,0.125,0.063c0.014,0.007,0.028,0.015,0.043,0.022   c0.077,0.04,0.153,0.081,0.229,0.123l0.002,0.001c0.649,0.361,1.253,0.799,1.805,1.312c0.037,0.035,0.075,0.069,0.113,0.103   c1.759,1.695,2.759,4.042,2.759,6.517c0,2.646-1.145,5.146-3.14,6.863c-0.592,0.509-1.24,0.937-1.936,1.28V270.208z    M118.407,286.492c-0.695-0.343-1.344-0.77-1.936-1.279c-1.996-1.716-3.14-4.218-3.14-6.865c0-2.818,1.563-4.848,2.716-5.961   c0.049-0.043,0.097-0.086,0.145-0.131c0.628-0.582,1.323-1.087,2.063-1.509c0.008-0.004,0.015-0.009,0.023-0.013   c0.043-0.024,0.085-0.048,0.128-0.072L118.407,286.492L118.407,286.492z M130.723,247.587c-2.218-0.167-4.43,0.326-6.358,1.38   c-0.82,0.448-1.589,0.998-2.285,1.643c-0.151,0.14-0.298,0.285-0.441,0.432c-0.015,0.015-0.029,0.031-0.044,0.047   c-0.056,0.058-0.111,0.117-0.166,0.176c-0.019,0.021-0.037,0.042-0.056,0.062c-0.049,0.054-0.097,0.108-0.145,0.163   c-0.023,0.027-0.046,0.054-0.069,0.081c-0.043,0.051-0.086,0.101-0.129,0.153c-0.023,0.028-0.046,0.057-0.069,0.085   c-0.04,0.05-0.081,0.1-0.12,0.151c-0.025,0.032-0.049,0.064-0.074,0.096c-0.036,0.048-0.073,0.095-0.108,0.144   c-0.025,0.034-0.049,0.068-0.074,0.102c-0.035,0.049-0.07,0.098-0.105,0.147c-0.023,0.033-0.046,0.067-0.069,0.1   c-0.034,0.05-0.068,0.101-0.102,0.152c-0.022,0.033-0.044,0.067-0.065,0.1c-0.034,0.052-0.067,0.104-0.099,0.157   c-0.02,0.033-0.041,0.065-0.061,0.098c-0.033,0.055-0.066,0.11-0.098,0.165c-0.018,0.031-0.037,0.063-0.055,0.094   c-0.033,0.058-0.065,0.115-0.097,0.174c-0.016,0.03-0.033,0.059-0.049,0.089c-0.033,0.061-0.065,0.123-0.097,0.185   c-0.014,0.028-0.029,0.055-0.043,0.083c-0.034,0.066-0.066,0.133-0.098,0.2c-0.011,0.023-0.022,0.045-0.033,0.068   c-0.035,0.074-0.069,0.149-0.103,0.224c-0.007,0.017-0.015,0.033-0.022,0.05c-0.038,0.085-0.074,0.17-0.109,0.256   c-0.002,0.005-0.005,0.011-0.007,0.016c-0.227,0.041-0.453,0.083-0.679,0.13v-9.506c0-27.932,22.724-50.656,50.655-50.656   s50.655,22.724,50.655,50.656v8.408c-0.553-2.857-2.553-5.028-8.994-11.895c-0.109-0.116-0.219-0.234-0.331-0.353   c-1.537-1.638-3.39-3.614-5.625-6.011c-0.504-0.541-1.028-1.103-1.572-1.688l-0.001-0.001c-0.06-0.064-0.12-0.127-0.18-0.189   c-0.061-0.063-0.122-0.124-0.184-0.185c-0.003-0.002-0.005-0.005-0.008-0.007c-0.111-0.109-0.224-0.215-0.339-0.319   c-0.118-0.107-0.238-0.211-0.36-0.312c-0.164-0.137-0.332-0.269-0.502-0.395c-0.164-0.121-0.33-0.238-0.498-0.349   c-0.066-0.044-0.132-0.087-0.198-0.129c-0.101-0.064-0.202-0.127-0.305-0.187c-0.003-0.002-0.005-0.003-0.008-0.005   c-0.108-0.063-0.216-0.124-0.326-0.184c-0.11-0.06-0.221-0.119-0.333-0.175c-0.109-0.055-0.219-0.107-0.329-0.159   c-0.045-0.021-0.089-0.042-0.134-0.062c-3.47-1.558-7.595-1.325-10.955,0.871C171.37,243.29,150.217,248.989,130.723,247.587z    M133.431,294.988c0.003-0.126,0.004-0.252,0.001-0.38l-0.012-0.404c-0.005-0.148-0.011-0.296-0.011-0.445v-31.017   c15.487,0.494,31.642-2.721,46.517-9.124c0.025-0.011,0.051-0.022,0.076-0.033c0.058-0.025,0.116-0.05,0.173-0.075   c0.216-0.094,0.432-0.188,0.647-0.283c0.119-0.052,0.239-0.105,0.358-0.158c0.074-0.033,0.147-0.065,0.221-0.098l0.001-0.001   c4.475-2.001,8.827-4.292,13.002-6.859c0.129,0.138,0.256,0.275,0.382,0.41c1.892,2.027,3.495,3.736,4.852,5.183   c2.46,2.623,4.413,4.705,5.454,5.888v36.167c0,0.037-0.001,0.073-0.001,0.109c-0.002,0.102-0.006,0.203-0.01,0.304l-0.014,0.437   c-0.003,0.135-0.003,0.27,0.001,0.404c-0.4,11.386-6.23,21.414-14.975,27.57c-0.098,0.061-0.194,0.124-0.29,0.19   c-4.586,3.163-9.781,5.166-15.231,5.897c-0.03,0.004-0.059,0.008-0.089,0.012c-0.087,0.011-0.174,0.022-0.262,0.033   c-0.038,0.005-0.076,0.009-0.114,0.014c-0.156,0.019-0.312,0.037-0.468,0.053c-0.04,0.004-0.079,0.009-0.119,0.013   c-0.069,0.007-0.138,0.014-0.207,0.021c-0.062,0.006-0.124,0.012-0.187,0.018c-0.066,0.006-0.132,0.012-0.198,0.018   c-0.076,0.007-0.152,0.013-0.229,0.019c-0.053,0.004-0.106,0.009-0.159,0.013c-0.122,0.009-0.244,0.018-0.366,0.026   c-0.053,0.003-0.106,0.007-0.159,0.01c-0.082,0.005-0.164,0.01-0.245,0.014c-0.055,0.003-0.109,0.006-0.164,0.009   c-0.105,0.005-0.21,0.01-0.315,0.014c-0.025,0.001-0.051,0.002-0.076,0.003c-0.132,0.005-0.264,0.009-0.396,0.012   c-0.041,0.001-0.083,0.002-0.124,0.003c-0.098,0.002-0.196,0.004-0.295,0.006c-0.043,0.001-0.086,0.001-0.129,0.002   c-0.134,0.001-0.269,0.002-0.403,0.002C147.586,328.983,134.059,311.911,133.431,294.988z M143.085,358.309l15.834,19.544   l-10.727,7.617c-0.022,0.016-0.044,0.032-0.066,0.048l-2.87,2.039l-12.582-25.217L143.085,358.309z" data-original="#474D54" class=""/>
	<path style="fill:#474D54;" d="M491.987,91.586h-97.034v-9.207c0-11.035-8.979-20.012-20.013-20.012h-72.024V26.406   c0-10.347-8.418-18.765-18.765-18.765h-10.65c-4.143,0-7.5,3.358-7.5,7.5s3.357,7.5,7.5,7.5h10.65c2.075,0,3.764,1.688,3.764,3.764   v90.688h-63.83V26.406c0-2.075,1.688-3.764,3.764-3.764h10.65c4.142,0,7.5-3.358,7.5-7.5s-3.358-7.5-7.5-7.5h-10.65   c-10.347,0-18.765,8.418-18.765,18.765v35.961h-72.024c-11.035,0-20.012,8.978-20.012,20.012v9.207H20.012   C8.978,91.586,0,100.564,0,111.598v372.749c0,11.035,8.978,20.012,20.012,20.012h471.975c11.035,0,20.013-8.978,20.013-20.012   V328.099c0-4.142-3.357-7.5-7.5-7.5s-7.5,3.358-7.5,7.5v156.248c0,2.763-2.248,5.011-5.012,5.011H20.012   c-2.763,0-5.011-2.248-5.011-5.011v-372.75c0-2.763,2.248-5.011,5.011-5.011h189.072v10.507h-0.933c-4.142,0-7.5,3.358-7.5,7.5   c0,4.142,3.358,7.5,7.5,7.5h95.696c4.143,0,7.5-3.358,7.5-7.5c0-4.142-3.357-7.5-7.5-7.5h-0.932v-10.507h189.071   c2.764,0,5.012,2.248,5.012,5.011v181.498c0,4.142,3.357,7.5,7.5,7.5s7.5-3.358,7.5-7.5V111.598   C512,100.564,503.021,91.586,491.987,91.586z M209.084,91.586h-77.036v-9.207c0-2.763,2.248-5.011,5.011-5.011h72.024   L209.084,91.586L209.084,91.586z M379.952,91.586h-77.036V77.368h72.024c2.764,0,5.012,2.248,5.012,5.011L379.952,91.586   L379.952,91.586z" data-original="#474D54" class=""/>
</g></g> </svg>
