<?xml version="1.0"?>
<svg xmlns="http://www.w3.org/2000/svg" height="512px" viewBox="-94 0 511 511.99883" width="512px" class=""><g><path d="m316.695312 345.027344v159.464844h-308.691406v-159.464844c0-27.773438 22.507813-50.285156 50.28125-50.285156h208.125c27.773438 0 50.285156 22.511718 50.285156 50.285156zm0 0" fill="#76ffd9" data-original="#76FFD9" class="" style="fill:#67DDD2" data-old_color="#246D59"/><path d="m254.472656 294.742188c-24.640625 21.46875-56.867187 34.472656-92.125 34.472656-35.253906 0-67.484375-13-92.121094-34.472656zm0 0" fill="#5de0bf" data-original="#5DE0BF" class="active-path" style="fill:#6ED7CC" data-old_color="#63CFC4"/><g fill="#fff"><path d="m313.78125 185.40625c0 19.050781-15.445312 34.496094-34.496094 34.496094-19.050781 0-34.496094-15.445313-34.496094-34.496094s15.445313-34.496094 34.496094-34.496094c19.050782 0 34.496094 15.445313 34.496094 34.496094zm0 0" data-original="#000000" class=""/><path d="m79.90625 185.40625c0 19.050781-15.445312 34.496094-34.496094 34.496094-19.050781 0-34.496094-15.445313-34.496094-34.496094s15.445313-34.496094 34.496094-34.496094c19.050782 0 34.496094 15.445313 34.496094 34.496094zm0 0" data-original="#000000" class=""/><path d="m206.785156 414.207031-44.4375 52.433594-44.4375-52.433594 19.355469-87.234375 6.371094-28.722656h37.421875l6.371094 28.722656zm0 0" data-original="#000000" class=""/></g><path d="m187.429688 326.972656c-8.136719 1.472656-16.519532 2.242188-25.082032 2.242188-8.558594 0-16.945312-.769532-25.082031-2.242188l6.371094-28.722656h37.421875zm0 0" fill="#e1eaf8" data-original="#E1EAF8"/><path d="m279.285156 188.890625c0 6.738281-.574218 13.34375-1.671875 19.761719-9.378906 55.171875-57.417969 97.175781-115.265625 97.175781-60.257812 0-109.875-45.582031-116.234375-104.144531-.46875-4.199219-.703125-8.464844-.703125-12.792969 0-64.574219 52.351563-116.9375 116.9375-116.9375 9.578125 0 18.886719 1.144531 27.796875 3.332031 29.28125 7.132813 54.246094 25.304688 70.242188 49.851563 11.953125 18.335937 18.898437 40.238281 18.898437 63.753906zm0 0" fill="#fff" data-original="#FFF" class=""/><path d="m260.386719 125.136719c-15.996094-24.546875-40.960938-42.71875-70.242188-49.851563-8.910156-2.1875-18.21875-3.332031-27.796875-3.332031-64.585937 0-116.9375 52.363281-116.9375 116.9375 0 4.328125.234375 8.59375.703125 12.792969 0 0 9.308594-24.453125 31.164063-39.957032 9.929687-7.046874 21.199218-11.601562 42.203125-11.601562 6.570312 0 13.667969.316406 21.1875.644531 8.710937.386719 17.726562.78125 27.386719.78125 15.457031 0 28.695312-1.027343 41.664062-3.226562 12.007812-2.035157 22.429688-5.203125 31.269531-9.492188 25.726563 18.21875 36.625 69.820313 36.625 69.820313 1.097657-6.417969 1.671875-13.023438 1.671875-19.761719 0-23.515625-6.945312-45.417969-18.898437-63.753906zm0 0" fill="#e1eaf8" data-original="#E1EAF8"/><path d="m253.136719 43.546875s47.199219 18.492187 48.367187 76.960937c1.167969 58.46875-22.21875 68.390626-22.21875 68.390626s-8.023437-66.054688-51.371094-80.085938c-43.347656-14.03125-10.285156-80.246094 25.222657-65.265625zm0 0" fill="#76ffd9" data-original="#76FFD9" class="" style="fill:#67DDD2" data-old_color="#246D59"/><path d="m206.785156 131.03125c-61.976562 10.523438-111.089844-12.863281-140.324218 19.878906-28.746094 32.179688-21.320313 47.417969-21.0625 47.933594-.628907-.644531-23.292969-24.183594-17.527344-81.847656.09375-.898438.1875-1.800782.289062-2.6875 6.351563-56.507813 31.597656-79.261719 51.746094-85.015625l-5.261719-18.710938s29.339844 8.1875 62.023438 0c24.710937-6.183593 80.160156-4.804687 106.789062 20.300781 8.617188 8.105469 14.207031 18.699219 14.78125 32.320313.78125 18.550781 10.523438 57.304687-51.453125 67.828125zm0 0" fill="#76ffd9" data-original="#76FFD9" class="" style="fill:#67DDD2" data-old_color="#246D59"/><path d="m206.785156 131.03125c-61.976562 10.523438-111.089844-12.863281-140.324218 19.878906-28.746094 32.179688-21.320313 47.417969-21.0625 47.933594-.628907-.644531-23.292969-24.183594-17.527344-81.847656.09375-.898438.1875-1.800782.289062-2.6875 2.492188 6.746094 8.691406 21.164062 17.25 25.292968 0 0 13.644532-31.175781 43.265625-32.742187l-2.730469-4.609375c-2.078124-3.511719 1.238282-7.742188 5.144532-6.558594 31.023437 9.410156 117.726562 30.878906 145.710937-12.992187 12.082031-18.945313 11.929688-36.730469 6.65625-51.816407 8.617188 8.105469 14.207031 18.699219 14.78125 32.324219.78125 18.546875 10.523438 57.300781-51.453125 67.824219zm0 0" fill="#5de0bf" data-original="#5DE0BF" class="active-path" style="fill:#6ED7CC" data-old_color="#63CFC4"/><path d="m191.417969 226.324219c5.070312 0 8.753906 4.808593 7.453125 9.710937-4.285156 16.160156-19.011719 28.074219-36.523438 28.074219-17.511718 0-32.238281-11.914063-36.523437-28.074219-1.300781-4.902344 2.382812-9.710937 7.453125-9.710937zm0 0" fill="#ffc843" data-original="#FFC843"/><path d="m74.113281 497v-92.019531c0-4.109375-3.164062-7.691407-7.269531-7.8125-4.246094-.128907-7.730469 3.277343-7.730469 7.496093v92.335938h-43.617187v-151.972656c0-23.625 19.152344-42.78125 42.78125-42.78125h52.742187c7.117188 3.238281 14.59375 5.816406 22.347657 7.671875l14.789062 2.601562c4.660156.53125 9.394531.816407 14.191406.816407 4.800782 0 9.535156-.285157 14.191406-.816407l14.789063-2.601562c7.753906-1.855469 15.230469-4.433594 22.351563-7.671875h52.730468c23.632813 0 42.789063 19.160156 42.789063 42.792968v39.007813c0 4.21875 3.484375 7.625 7.730469 7.5 4.105468-.125 7.269531-3.707031 7.269531-7.8125v-38.695313c0-31.917968-25.875-57.789062-57.789063-57.789062h-27.917968c19.5-15.132812 34.390624-35.917969 42.199218-59.878906 22.507813-.742188 40.589844-19.273438 40.589844-41.964844 0-12.359375-5.386719-23.929688-14.628906-31.859375 1.667968-9.0625 2.609375-20 2.347656-33.191406-1.101562-54.871094-39.875-77.445313-50.464844-82.597657-3.769531-6.417968-8.984375-12.152343-15.664062-17.140624-29.007813-21.679688-81.371094-23.980469-108.019532-17.308594-30.238281 7.574218-57.925781.125-58.191406.050781-3.15625-.878906-6.59375.382813-8.402344 3.289063-1.140624 1.832031-1.355468 4.097656-.773437 6.179687l3.324219 11.8125c-12.585938 5.578125-23.871094 16.113281-32.316406 30.316406-1.953126 3.285157-1.28125 7.628907 1.753906 9.949219 3.644531 2.789062 8.777344 1.707031 11.039062-2.121094 10.847656-18.335937 23.878906-24.335937 30.683594-26.28125 3.96875-1.132812 6.277344-5.265625 5.160156-9.242187l-1.96875-7c12.226563 1.742187 32.035156 2.929687 53.335938-2.402344 23.152344-5.796875 70.449218-3.875 95.394531 14.769531 5.53125 4.132813 9.664063 8.796875 12.460937 14.066406.066407.136719.132813.269532.207032.402344 2.539062 4.929688 3.933594 10.375 4.1875 16.421875.078125 1.917969.242187 3.960938.417968 6.125.742188 9.3125 1.667969 20.898438-3.492187 30.8125-2.035156 3.910157-4.925781 7.351563-8.664063 10.347657-.035156.027343-.074218.058593-.109374.089843-7.554688 6.019531-18.582032 10.230469-33.367188 12.742188-23.027344 3.90625-44.664062 2.957031-63.757812 2.121093-32.480469-1.429687-60.535157-2.660156-80.90625 20.15625-10.5 11.761719-16.632813 21.636719-20.078126 29.6875-2.003906-5.476562-3.847656-12.316406-5.03125-20.625-.023437-.375-.070312-.753906-.152343-1.125-1.316407-9.917968-1.695313-21.867187-.269531-36.105468.980468-9.820313 2.59375-19.015625 4.792968-27.335938 1.046875-3.960937-1.0625-8.21875-4.984375-9.410156-4.078125-1.238281-8.339843 1.15625-9.429687 5.242188-2.445313 9.175781-4.230469 19.273437-5.304688 30.007812-1.355468 13.546875-1.199218 25.34375-.125 35.519531-10.507812 7.875-16.867187 20.34375-16.867187 33.636719 0 22.6875 18.082031 41.222656 40.589843 41.964844 7.808594 23.960937 22.703126 44.746094 42.199219 59.875h-27.917969c-31.917968 0-57.789062 25.875-57.789062 57.789062v159.464844c0 4.140625 3.359375 7.5 7.5 7.5h308.703125c4.140625 0 7.5-3.359375 7.5-7.5v-90.1875c0-4.109375-3.164063-7.6875-7.269531-7.8125-4.246094-.128906-7.730469 3.277344-7.730469 7.496094v83.003906h-43.621094v-92.023438c0-4.105468-3.164062-7.6875-7.269531-7.808593-4.246094-.128907-7.730469 3.277343-7.730469 7.496093v92.335938zm-55.695312-311.59375c0-5.683594 1.816406-11.132812 5.015625-15.636719 4.652344 18.539063 12.085937 28.984375 15.226562 32.765625.347656 3.148438.808594 6.261719 1.382813 9.335938-12.320313-2.496094-21.625-13.414063-21.625-26.464844zm287.863281 0c0 13.050781-9.308594 23.96875-21.628906 26.464844 1.148437-6.128906 1.84375-12.414063 2.054687-18.820313 4.21875-3.242187 10.429688-9.789062 15.234375-22.316406 2.789063 4.304687 4.339844 9.375 4.339844 14.671875zm-45.308594-78.023438c7.152344-13.734374 5.988282-28.300781 5.140625-38.933593-.160156-2.019531-.3125-3.921875-.382812-5.558594-.042969-1.011719-.113281-2.011719-.203125-3.003906 12.355468 9.960937 27.832031 28.769531 28.472656 60.765625.574219 28.671875-4.996094 44.445312-10.0625 52.804687-3.78125-15.535156-12.148438-40.128906-29.382812-56.847656 2.535156-2.835937 4.691406-5.902344 6.417968-9.226563zm-98.625 190.953126c-60.34375 0-109.4375-49.09375-109.4375-109.4375 0-.617188-.082031-1.210938-.222656-1.78125 1.671875-6.496094 6.476562-16.773438 19.367188-31.210938 15.632812-17.507812 38.042968-16.523438 69.058593-15.164062 19.839844.871093 42.328125 1.859374 66.925781-2.316407 14.179688-2.410156 25.820313-6.488281 34.898438-12.164062 22.128906 20.261719 28.183594 58.460937 28.84375 63.078125-.238281 60.140625-49.234375 108.996094-109.433594 108.996094zm0 0" fill="#434c54" data-original="#434C54" class=""/><path d="m122.195312 180.535156c0-4.144531-3.355468-7.5-7.5-7.5h-1.167968c-4.140625 0-7.5 3.355469-7.5 7.5 0 4.140625 3.359375 7.5 7.5 7.5h1.167968c4.144532 0 7.5-3.359375 7.5-7.5zm0 0" fill="#969ba1" data-original="#969BA1"/><path d="m210 188.035156h1.167969c4.144531 0 7.5-3.359375 7.5-7.5 0-4.144531-3.355469-7.5-7.5-7.5h-1.167969c-4.140625 0-7.5 3.355469-7.5 7.5 0 4.140625 3.359375 7.5 7.5 7.5zm0 0" fill="#969ba1" data-original="#969BA1"/></g> </svg>
