<?xml version="1.0" encoding="iso-8859-1"?>
<!-- Generator: Adobe Illustrator 19.0.0, SVG Export Plug-In . SVG Version: 6.00 Build 0)  -->
<svg version="1.1" id="Capa_1" xmlns="http://www.w3.org/2000/svg" xmlns:xlink="http://www.w3.org/1999/xlink" x="0px" y="0px"
	 viewBox="0 0 512 512" style="enable-background:new 0 0 512 512;" xml:space="preserve">
<path style="fill:#E0E0E2;" d="M364.638,435.368c2.356,0,4.567-0.918,6.231-2.583l45.536-46.156
	c1.604-1.626,2.503-3.818,2.503-6.102v-86.675h-57.056v67.261l-31.333,31.333c-1.662,1.659-2.579,3.872-2.579,6.227
	c0,2.354,0.917,4.567,2.584,6.231l27.886,27.887C360.063,434.448,362.279,435.368,364.638,435.368z"/>
<path style="fill:#C6C5CA;" d="M352.691,427.069c-1.667-1.664-2.584-3.877-2.584-6.231c0-2.355,0.917-4.567,2.579-6.227
	l31.333-31.333v-51.84c0-8.517,6.905-15.421,15.421-15.421h19.469v-22.166h-57.056v67.261l-31.333,31.333
	c-1.662,1.659-2.579,3.872-2.579,6.227c0,2.354,0.917,4.567,2.584,6.231l27.886,27.887c0.001,0.001,0.003,0.003,0.004,0.004
	L352.691,427.069z"/>
<path style="fill:#FF9750;" d="M339.858,279.033v-16.212h100.738v33.154c0,7.691-6.237,13.926-13.929,13.922l-8.005-0.004
	l-0.349-0.026h-55.669l-0.274,0.005l-8.62-0.003c-7.695-0.003-13.928-6.248-13.917-13.943L339.858,279.033z"/>
<path style="fill:#FFD278;" d="M207.341,317.298c23.657-10.732,86.995-36.113,163.999-39.973
	c11.145-0.559,19.874-9.688,19.874-20.787v-90.532c0-11.098-8.731-20.229-19.873-20.787c-4.785-0.24-9.767-0.583-14.803-1.017
	l-7.695-0.665v-0.013l-7.041-0.856c-64.083-7.791-115.38-28.766-134.459-37.423l-11.317-5.134v222.32L207.341,317.298z"/>
<path style="fill:#FFBF4D;" d="M371.341,239.788c-21.582,1.082-42.088,3.855-60.949,7.521c-9.352,1.818-18.135-5.086-18.599-14.601
	l-4.893-100.224c-2.559-0.635-5.07-1.281-7.543-1.937v109.004c0,8.677-5.692,16.347-14.011,18.814
	c-4.528,1.343-8.876,2.703-13.027,4.061c-12.707,4.155-25.764-5.289-25.764-18.659V113.321c-8.097-3.17-14.603-5.984-19.213-8.076
	l-11.317-5.134v184.783v37.537l11.317-5.134c0.541-0.245,1.108-0.5,1.69-0.76c0.111-0.05,0.221-0.099,0.334-0.149
	c0.574-0.256,1.166-0.518,1.778-0.787c0.111-0.049,0.225-0.098,0.337-0.147c0.601-0.263,1.216-0.532,1.852-0.806
	c0.056-0.024,0.11-0.048,0.166-0.072c0.674-0.29,1.37-0.589,2.083-0.891c0.134-0.057,0.269-0.114,0.405-0.172
	c0.724-0.306,1.462-0.617,2.224-0.934c0.069-0.029,0.141-0.058,0.21-0.087c0.743-0.309,1.505-0.623,2.284-0.942
	c0.093-0.038,0.185-0.076,0.278-0.114c0.811-0.33,1.643-0.667,2.49-1.007c0.131-0.053,0.264-0.106,0.397-0.159
	c0.876-0.35,1.766-0.704,2.68-1.062c30.855-12.102,83.493-28.811,144.79-31.884c11.145-0.559,19.874-9.688,19.874-20.787V219
	C391.215,230.1,382.486,239.231,371.341,239.788z"/>
<path style="fill:#E0E0E2;" d="M494.396,249.809c5.844,0,10.597-4.754,10.597-10.597v-54.88c0-5.844-4.754-10.597-10.597-10.597
	H450.94v76.074L494.396,249.809L494.396,249.809z"/>
<path style="fill:#C6C5CA;" d="M494.396,225.952H450.94v23.857h43.455c5.844,0,10.597-4.754,10.597-10.597v-23.857
	C504.993,221.198,500.24,225.952,494.396,225.952z"/>
<path style="fill:#FF3F62;" d="M458.309,263.823c6.976,0,12.651-5.675,12.651-12.65v-78.801c0-6.976-5.676-12.65-12.651-12.65
	h-73.433v104.102H458.309z"/>
<path style="fill:#D61841;" d="M458.309,238.798h-12.041c-11.594,0-21.261-8.872-22.253-20.424l-5.036-58.653h-34.103v79.077v25.024
	h43.042h30.391c6.987,0,12.651-5.665,12.651-12.651v-25.024C470.96,233.124,465.284,238.798,458.309,238.798z"/>
<path style="fill:#F97923;" d="M178.007,345.903c10.487,0,19.019-8.531,19.019-19.019V95.658c0-10.487-8.531-19.019-19.019-19.019
	c-10.487,0-19.019,8.531-19.019,19.019v231.226C158.988,337.371,167.521,345.903,178.007,345.903z"/>
<path d="M494.396,166.728h-24.271c-2.432-8.096-9.946-14.014-18.823-14.014h-56.805c-4.507-8.247-13.084-13.991-23.14-14.494
	c-82.683-4.144-150.774-34.227-167.659-42.28v-0.281c0-14.35-11.674-26.025-26.025-26.025s-26.025,11.675-26.025,26.025v231.226
	c0,14.35,11.674,26.025,26.025,26.025s26.025-11.675,26.025-26.025V326.6c14.158-6.763,64.358-29.047,129.126-38.479v13.771
	c0,8.26,6.721,14.981,14.982,14.981h7.04v41.335l-29.281,29.281c-2.986,2.986-4.631,6.958-4.631,11.181
	c0,4.224,1.645,8.195,4.631,11.181l27.891,27.891c3.083,3.083,7.132,4.625,11.182,4.625c4.049,0,8.098-1.542,11.181-4.625
	l47.212-47.212c0.245-0.246,0.471-0.504,0.676-0.774c1.363-1.359,2.208-3.24,2.208-5.318v-67.566h6.682
	c8.26,0,14.981-6.721,14.981-14.981v-31.064h3.725c8.878,0,16.391-5.918,18.823-14.014h24.271c9.706,0,17.604-7.898,17.604-17.604
	v-54.88C512,174.626,504.102,166.728,494.396,166.728z M203.699,310.005v-46.395c0-4.146-3.361-7.507-7.507-7.507l0,0
	c-4.146,0-7.507,3.361-7.507,7.507v58.203c0,0.009,0,0.019,0,0.028v4.722c0,5.731-4.244,10.746-9.95,11.283
	c-6.546,0.617-12.072-4.539-12.072-10.961V95.981c0-5.731,4.244-10.746,9.95-11.283c6.546-0.617,12.072,4.539,12.072,10.961v5.044
	c0,0.009,0,0.019,0,0.028v119.176c0,4.146,3.361,7.507,7.507,7.507l0,0c4.146,0,7.507-3.361,7.507-7.507V112.538
	c21.543,9.774,72.627,30.278,136.802,38.079v44.324c0,4.111,3.168,7.696,7.277,7.819c4.251,0.127,7.738-3.281,7.738-7.504V152.18
	c4.967,0.429,9.997,0.781,15.091,1.036c6.88,0.344,12.268,5.963,12.268,12.789v90.532c0,6.827-5.388,12.445-12.267,12.789
	C292.535,273.241,228.516,298.746,203.699,310.005z M410.901,328.862l-17.49-0.064h-0.028c-4.133,0-7.491,3.343-7.506,7.48
	c-0.015,4.146,3.334,7.519,7.48,7.534l17.544,0.064v36.103c-0.356,0.483-0.66,1.015-0.897,1.587
	c-0.152,0.368-0.274,0.745-0.365,1.124l-44.437,44.437c-0.311,0.31-0.82,0.309-1.127,0l-27.891-27.891
	c-0.312-0.311-0.312-0.817,0-1.128l31.479-31.48c1.407-1.407,2.198-3.317,2.198-5.308v-44.445h41.04v11.987H410.901z
	 M418.52,301.866c-0.037-0.001-0.073-0.006-0.111-0.006h-56.055c-0.188,0-0.373,0.015-0.559,0.028l-13.956,0.006V286.21
	c7.682-0.84,15.529-1.486,23.519-1.887c9.643-0.483,17.928-5.786,22.565-13.493h38.646l0.028,31.03L418.52,301.866z
	 M455.945,251.172c0,2.561-2.083,4.643-4.644,4.643h-53.413v-88.086h53.413c2.561,0,4.644,2.083,4.644,4.643V251.172z
	 M496.985,239.212c0,1.427-1.161,2.59-2.59,2.59H470.96v-60.059h23.436c1.428,0,2.59,1.162,2.59,2.59V239.212z"/>
<path d="M348.34,212.773c-4.147,0-7.507,3.361-7.507,7.507v13.013c0,4.146,3.36,7.507,7.507,7.507s7.507-3.361,7.507-7.507V220.28
	C355.848,216.134,352.487,212.773,348.34,212.773z"/>
<path d="M89.686,174.986c4.147,0,7.507-3.361,7.507-7.507c0-4.146-3.36-7.507-7.507-7.507c-26.882,0-48.753,22.115-48.753,49.298
	s21.87,49.298,48.753,49.298c4.147,0,7.507-3.361,7.507-7.507c0-4.146-3.36-7.507-7.507-7.507
	c-18.603,0-33.738-15.379-33.738-34.283S71.082,174.986,89.686,174.986z"/>
<path d="M88.998,285.344c-40.795,0-73.983-34.126-73.983-76.074s33.188-76.074,73.983-76.074c4.147,0,7.507-3.361,7.507-7.507
	c0-4.146-3.36-7.507-7.507-7.507C39.925,118.18,0,159.042,0,209.269s39.925,91.089,88.998,91.089c4.147,0,7.507-3.361,7.507-7.507
	S93.145,285.344,88.998,285.344z"/>
<g>
</g>
<g>
</g>
<g>
</g>
<g>
</g>
<g>
</g>
<g>
</g>
<g>
</g>
<g>
</g>
<g>
</g>
<g>
</g>
<g>
</g>
<g>
</g>
<g>
</g>
<g>
</g>
<g>
</g>
</svg>
