<?xml version="1.0"?>
<svg xmlns="http://www.w3.org/2000/svg" xmlns:xlink="http://www.w3.org/1999/xlink" version="1.1" id="Capa_1" x="0px" y="0px" viewBox="0 0 512 512" style="enable-background:new 0 0 512 512;" xml:space="preserve" width="512px" height="512px" class=""><g><path style="fill:#FFA816;" d="M110.382,147.951v43.674c0,3.827-3.136,6.963-6.963,6.963H46.83c-3.827,0-6.963-3.136-6.963-6.963  v-43.674c0-3.827,3.136-6.963,6.963-6.963h56.589C107.246,140.988,110.382,144.124,110.382,147.951z" data-original="#FFA816"/><path style="fill:#FFC843;" d="M110.382,158.02v33.605c0,3.827-3.136,6.963-6.963,6.963H64.915v-33.605  c0-3.827,3.136-6.963,6.963-6.963H110.382z" data-original="#FFC843" class=""/><path style="fill:#D8E0EA;" d="M502.114,204.53v275.078c0,13.406-10.971,24.377-24.377,24.377H32.903  c-13.406,0-24.377-10.971-24.377-24.377V204.53c0-13.406,10.971-24.367,24.377-24.367h444.834  C491.143,180.163,502.114,191.124,502.114,204.53z" data-original="#D8E0EA"/><path style="fill:#FFFFFF;" d="M502.114,204.53v275.078c0,13.406-10.971,24.377-24.377,24.377H63.652  c-13.406,0-24.377-10.971-24.377-24.377V204.53c0-13.406,10.971-24.367,24.377-24.367h414.085  C491.143,180.163,502.114,191.124,502.114,204.53z" data-original="#FFFFFF" class=""/><path style="fill:#FFA816;" d="M373.748,236.18c0,3.487-4.008,6.352-8.897,6.352H145.79c-4.889,0-8.897-2.866-8.897-6.352  l25.719-103.899c0-3.827,3.136-6.963,6.963-6.963h171.489c3.827,0,6.963,3.136,6.963,6.963L373.748,236.18z" data-original="#FFA816"/><g>
	<path style="fill:#FFC843;" d="M373.748,236.18c0,3.487-4.008,6.352-8.897,6.352H179.855c-4.889,0-8.897-2.866-8.897-6.352   l25.719-103.899c0-3.827,3.136-6.963,6.963-6.963h137.424c3.827,0,6.963,3.136,6.963,6.963L373.748,236.18z" data-original="#FFC843" class=""/>
	<path style="fill:#FFC843;" d="M477.734,180.159H32.907c-13.407,0-24.376,10.969-24.376,24.376v93.143h493.578v-93.143   C502.109,191.128,491.14,180.159,477.734,180.159z" data-original="#FFC843" class=""/>
</g><circle style="fill:#FF8025;" cx="433.332" cy="237.606" r="26.12" data-original="#FF8025"/><circle style="fill:#38AFA4" cx="260.54" cy="338.159" r="137.574" data-original="#00A97D" class="" data-old_color="#67DDD2"/><path style="fill:#67DDD2" d="M260.391,450.702c-53.846,0-100.267-38.466-110.376-91.463  c-11.625-60.946,28.5-119.986,89.445-131.612c7.02-1.339,14.165-2.018,21.236-2.018c53.847,0,100.267,38.466,110.375,91.463  c5.632,29.524-0.57,59.472-17.465,84.33c-16.893,24.859-42.457,41.65-71.98,47.281C274.607,450.023,267.461,450.702,260.391,450.702  z" data-original="#00C395" class="active-path" data-old_color="#0B624D"/><path style="fill:#5DE0BF;" d="M113.568,435.453v30.729c0,2.174-1.783,3.958-3.968,3.958H43.203c-2.184,0-3.968-1.783-3.968-3.958  v-30.729c0-2.174,1.783-3.968,3.968-3.968H109.6C111.785,431.485,113.568,433.279,113.568,435.453z" data-original="#5DE0BF"/><path style="fill:#67DDD2" d="M113.568,435.453v30.729c0,2.174-1.783,3.958-3.968,3.958H75.264c-2.184,0-3.968-1.783-3.968-3.958  v-30.729c0-2.174,1.783-3.968,3.968-3.968H109.6C111.785,431.485,113.568,433.279,113.568,435.453z" data-original="#76FFD9" class="" data-old_color="#76FFD9"/><path style="fill:#5DE0BF;" d="M292.782,418.29c-4.188,1.683-8.436,3.026-12.694,4.018c-40.798,9.528-83.56-11.843-99.681-51.91  c-17.804-44.265,3.637-94.572,47.892-112.376c17.103-6.883,35.097-7.905,51.779-4.018c26.501,6.172,49.675,24.747,60.606,51.91  C358.488,350.179,337.047,400.486,292.782,418.29z" data-original="#5DE0BF"/><path style="fill:#67DDD2" d="M292.782,418.29c-4.188,1.683-8.436,3.026-12.694,4.018c-26.501-6.172-49.675-24.747-60.606-51.91  c-17.814-44.265,3.637-94.572,47.892-112.376c4.188-1.683,8.436-3.026,12.704-4.018c26.501,6.172,49.675,24.747,60.606,51.91  C358.488,350.179,337.047,400.486,292.782,418.29z" data-original="#76FFD9" class="" data-old_color="#76FFD9"/><path style="fill:#FFA816;" d="M63.652,180.163c-13.406,0-24.377,10.961-24.377,24.367v93.149H8.526V204.53  c0-13.406,10.971-24.367,24.377-24.367L63.652,180.163L63.652,180.163z" data-original="#FFA816"/><g>
	<path style="fill:#67DDD2" d="M377.573,94.117c21.939,0,39.789,17.849,39.789,39.788c0,4.426,3.589,8.015,8.015,8.015   c4.426,0,8.015-3.589,8.015-8.015c0-30.779-25.041-55.819-55.82-55.819c-4.427,0-8.015,3.589-8.015,8.015   C369.557,90.528,373.146,94.117,377.573,94.117z" data-original="#00C395" class="active-path" data-old_color="#0B624D"/>
	<path style="fill:#67DDD2" d="M377.573,16.031c64.997,0,117.875,52.879,117.875,117.874c0,4.426,3.589,8.015,8.015,8.015   c4.427,0,8.015-3.589,8.015-8.015C511.479,60.07,451.409,0,377.573,0c-4.427,0-8.015,3.589-8.015,8.015   S373.146,16.031,377.573,16.031z" data-original="#00C395" class="active-path" data-old_color="#0B624D"/>
	<path style="fill:#67DDD2" d="M377.573,53.604c44.278,0,80.301,36.023,80.301,80.301c0,4.426,3.589,8.015,8.015,8.015   c4.426,0,8.015-3.589,8.015-8.015c0-53.118-43.215-96.332-96.332-96.332c-4.427,0-8.015,3.589-8.015,8.015   S373.146,53.604,377.573,53.604z" data-original="#00C395" class="active-path" data-old_color="#0B624D"/>
</g><path style="fill:#434C54;" d="M477.737,172.148H366.153l-10.149-41.019c-0.591-7.725-7.064-13.827-14.939-13.827H169.576  c-7.875,0-14.348,6.102-14.939,13.827l-10.149,41.019h-26.091V147.95c0-8.26-6.72-14.98-14.98-14.98H46.834  c-8.26,0-14.98,6.72-14.98,14.98v24.224c-17.369,0.558-31.333,14.854-31.333,32.356v275.078C0.521,497.472,15.049,512,32.903,512  h444.834c17.854,0,32.392-14.528,32.392-32.392V204.53C510.129,186.675,495.591,172.148,477.737,172.148z M170.387,134.205  c0.08-0.291,0.13-0.581,0.17-0.872h169.525c0.04,0.291,0.09,0.581,0.17,0.872l9.388,37.943H160.999L170.387,134.205z   M47.885,149.001h54.481v23.142H47.885V149.001z M494.099,479.608c0,9.027-7.344,16.361-16.361,16.361H32.903  c-9.017,0-16.351-7.334-16.351-16.361V204.53c0-9.017,7.334-16.351,16.351-16.351h444.834c9.017,0,16.361,7.334,16.361,16.351  V479.608z" data-original="#434C54" class=""/><path style="fill:#FFFFFF;" d="M175.633,356.017c4.397-0.51,7.549-4.488,7.04-8.885c-4.059-35.05,15.597-68.39,48.621-81.678  c51.473-20.706,107.638,17.162,107.638,72.674c0,32.172-19.289,60.721-49.14,72.731c-38.943,15.666-81.815-2.418-99.373-37.711  c-1.971-3.963-6.783-5.577-10.747-3.606c-3.964,1.972-5.578,6.783-3.606,10.747c21.72,43.66,73.699,63.954,119.71,45.442  c49.188-19.79,71.565-75.022,52.341-122.807c-19.788-49.188-75.022-71.566-122.807-52.342  c-39.847,16.032-63.448,56.252-58.562,98.396C167.258,353.374,171.238,356.524,175.633,356.017z" data-original="#FFFFFF" class=""/></g> </svg>
