<?xml version="1.0"?>
<svg xmlns="http://www.w3.org/2000/svg" height="512px" viewBox="0 -51 512 511" width="512px" class=""><g><path d="m338.472656 98.535156v75.042969h93.519532v-154.792969c0-5.746094-4.703126-10.449218-10.449219-10.449218h-309.738281c-5.746094 0-10.449219 4.703124-10.449219 10.449218v69.296875h226.667969c5.746093.003907 10.449218 4.703125 10.449218 10.453125zm0 0" fill="#fff" data-original="#FFF" class=""/><path d="m338.472656 98.535156v75.042969h69.207032v-140.839844h-282.011719v55.347657h202.355469c5.746093 0 10.449218 4.699218 10.449218 10.449218zm0 0" fill="#ffc843" data-original="#FFC843" class=""/><path d="m125.667969 32.738281h27.933593v55.347657h-27.933593zm0 0" fill="#ffb400" data-original="#FFB400"/><path d="m173.527344 184.027344c0-5.746094 4.703125-10.449219 10.449218-10.449219h154.496094v-75.042969c0-5.75-4.703125-10.449218-10.449218-10.449218h-309.738282c-5.746094 0-10.449218 4.699218-10.449218 10.449218v207.113282c0 5.75 4.703124 10.449218 10.449218 10.449218h155.242188zm0 0" fill="#e1eaf8" data-original="#E1EAF8"/><path d="m173.527344 184.027344c0-5.746094 4.703125-10.449219 10.449218-10.449219h130.183594v-61.09375h-282.011718v179.210937h141.378906zm0 0" fill="#ffc843" data-original="#FFC843" class=""/><path d="m162.085938 183.992188c-20.644532 0-37.527344 16.132812-38.839844 36.519531-5.109375-3.683594-11.375-5.859375-18.144532-5.859375-14.847656 0-27.257812 10.425781-30.386718 24.371094-3.183594-1.179688-6.507813-2.078126-9.929688-2.675782v55.347656h108.742188v-105.984374c-3.617188-1.117188-7.460938-1.71875-11.441406-1.71875zm0 0" fill="#fff" data-original="#FFF" class=""/><path d="m64.785156 236.347656v-123.863281h-32.636718v127.832031c6.996093-3.089844 14.722656-4.816406 22.855468-4.816406 3.335938 0 6.601563.292969 9.78125.847656zm0 0" fill="#ffb400" data-original="#FFB400"/><path d="m55.003906 235.5c-8.132812 0-15.859375 1.726562-22.855468 4.816406v51.378906h32.636718v-55.347656c-3.179687-.554687-6.445312-.847656-9.78125-.847656zm0 0" fill="#e1eaf8" data-original="#E1EAF8"/><path d="m504.164062 391.140625c0 5.746094-4.703124 10.449219-10.449218 10.449219h-309.738282c-5.746093 0-10.449218-4.703125-10.449218-10.449219v-207.113281c0-5.746094 4.703125-10.449219 10.449218-10.449219h309.738282c5.746094 0 10.449218 4.703125 10.449218 10.449219zm0 0" fill="#fff" data-original="#FFF" class=""/><path d="m197.839844 197.976562h282.011718v179.214844h-282.011718zm0 0" fill="#ffc843" data-original="#FFC843" class=""/><path d="m476.164062 336.683594-63.46875-63.703125c-2.03125-2.035157-5.347656-2.035157-7.375 0l-66.035156 66.28125 34.101563 34.226562c2.027343 2.035157 1.335937 3.703125-1.539063 3.703125h102.78125c2.871094 0 5.222656-2.351562 5.222656-5.226562v-26.355469c0-2.871094-1.660156-6.886719-3.6875-8.925781zm0 0" fill="#76ffd9" data-original="#76FFD9" class="" style="fill:#67DDD2" data-old_color="#76FFD9"/><path d="m309.125 248.539062c0-12.496093-10.097656-22.628906-22.550781-22.628906s-22.546875 10.132813-22.546875 22.628906c0 12.5 10.09375 22.632813 22.546875 22.632813s22.550781-10.132813 22.550781-22.632813zm0 0" fill="#fff" data-original="#FFF" class=""/><path d="m281.957031 248.539062c0-9.300781 5.589844-17.285156 13.582031-20.765624-2.746093-1.195313-5.777343-1.863282-8.964843-1.863282-12.453125 0-22.546875 10.128906-22.546875 22.628906 0 12.503907 10.09375 22.632813 22.546875 22.632813 3.1875 0 6.21875-.667969 8.964843-1.863281-7.992187-3.480469-13.582031-11.464844-13.582031-20.769532zm0 0" fill="#e1eaf8" data-original="#E1EAF8"/><path d="m493.714844 165.742188h-53.886719v-54.820313c0-4.328125-3.507813-7.835937-7.835937-7.835937-4.328126 0-7.835938 3.507812-7.835938 7.835937v54.820313h-34.410156c-4.328125 0-7.835938 3.507812-7.835938 7.835937s3.507813 7.835937 7.835938 7.835937h103.96875c1.414062 0 2.613281 1.195313 2.613281 2.613282v207.113281c0 1.417969-1.199219 2.613281-2.613281 2.613281h-309.738282c-1.417968 0-2.613281-1.195312-2.613281-2.613281v-207.113281c0-1.417969 1.195313-2.613282 2.613281-2.613282h172.332032c4.328125 0 7.839844-3.507812 7.839844-7.835937s-3.511719-7.835937-7.839844-7.835937h-10v-67.207032c0-10.085937-8.203125-18.289062-18.285156-18.289062h-218.832032v-61.460938c0-1.414062 1.195313-2.609375 2.613282-2.609375h309.738281c1.417969 0 2.613281 1.195313 2.613281 2.609375v57.660156c0 4.328126 3.507812 7.835938 7.835938 7.835938 4.328124 0 7.835937-3.507812 7.835937-7.835938v-57.660156c0-10.082031-8.203125-18.285156-18.285156-18.285156h-309.738281c-10.082032 0-18.285157 8.203125-18.285157 18.285156v61.460938h-75.234375c-10.082031 0-18.285156 8.203125-18.285156 18.285156v207.117188c0 10.082031 8.203125 18.285156 18.285156 18.285156h147.40625v67.207031c0 10.082031 8.203125 18.285156 18.285156 18.285156h309.738282c10.082031 0 18.285156-8.203125 18.285156-18.285156v-207.113281c0-10.082032-8.203125-18.285156-18.285156-18.285156zm-326.363282 10.71875c-2.0625 4.699218-1.636718 12.699218-1.660156 15.59375v116.207031h-147.40625c-1.414062 0-2.613281-1.195313-2.613281-2.613281v-207.113282c0-1.417968 1.199219-2.613281 2.613281-2.613281h309.738282c1.417968 0 2.613281 1.195313 2.613281 2.613281v67.207032h-146.660157c-7.382812 0-13.742187 4.40625-16.625 10.71875zm0 0" fill="#434c54" data-original="#434C54" class=""/><path d="m373.386719 373.488281-62.464844-62.691406c-2.027344-2.039063-5.34375-2.039063-7.375 0l-25.445313 25.539063c-2.027343 2.035156-5.347656 2.035156-7.375 0l-39.804687-39.953126v80.808594h140.925781c2.875 0 3.566406-1.667968 1.539063-3.703125zm0 0" fill="#5de0bf" data-original="#5DE0BF" class="" style="fill:#67DDD2" data-old_color="#0E644E"/><path d="m223.328125 296.164062c2.027344-2.035156 5.347656-2.035156 7.375 0l.21875.21875v-98.40625h-33.082031v128.996094c0-2.871094 1.660156-6.886718 3.6875-8.925781zm0 0" fill="#ffb400" data-original="#FFB400"/><path d="m197.839844 371.964844v5.226562h5.222656c-2.871094 0-5.222656-2.351562-5.222656-5.226562zm0 0" fill="#434c54" data-original="#434C54" class=""/><path d="m230.703125 296.164062c-2.027344-2.035156-5.347656-2.035156-7.375 0l-21.804687 21.882813c-2.027344 2.035156-3.6875 6.054687-3.6875 8.925781v44.992188c0 2.875 2.351562 5.226562 5.226562 5.226562h27.859375v-80.808594zm0 0" fill="#00a97d" data-original="#00A97D" class="active-path" style="fill:#4ABCB1" data-old_color="#52C3B8"/></g> </svg>
