<?xml version="1.0"?>
<svg xmlns="http://www.w3.org/2000/svg" xmlns:xlink="http://www.w3.org/1999/xlink" version="1.1" id="Layer_1" x="0px" y="0px" viewBox="0 0 503.746 503.746" style="enable-background:new 0 0 503.746 503.746;" xml:space="preserve" width="512px" height="512px" class=""><g><g transform="translate(1 1)">
	<path style="fill:#1D887E" d="M498.479,105.519v358.4c0,18.773-15.36,34.133-34.133,34.133h-358.4   c-18.773,0-34.133-15.36-34.133-34.133v-358.4c0-18.773,15.36-34.133,34.133-34.133h325.973h32.427   C483.119,71.386,498.479,86.746,498.479,105.519L498.479,105.519z" data-original="#FFD0A1" class="active-path" data-old_color="#AAB1BA"/>
	<rect x="105.946" y="105.519" style="fill:#ECF4F7;" width="358.4" height="358.4" data-original="#ECF4F7" class=""/>
	<path style="fill:#67DDD2" d="M379.012,368.346c14.507-4.267,31.573-6.827,51.2-6.827c0,0,17.067,0,34.133,8.533v93.867h-358.4   c0,0,42.667-68.267,102.4-68.267s93.867,34.133,93.867,34.133S319.279,385.412,379.012,368.346z M379.012,190.853   c25.6,0,34.133,68.267,34.133,102.4c0,18.773-15.36,34.133-34.133,34.133c-18.773,0-34.133-15.36-34.133-34.133   C344.879,259.119,353.412,190.853,379.012,190.853z" data-original="#50DD8E" class="" data-old_color="#50DD8E"/>
	<path style="fill:#FFE079;" d="M232.239,184.026c5.973,5.973,10.24,14.507,10.24,23.893s-3.413,17.92-10.24,23.893   c-5.973,5.973-14.507,10.24-23.893,10.24s-17.92-3.413-23.893-10.24c-5.973-5.973-10.24-14.507-10.24-23.893   s3.413-17.92,10.24-23.893c5.973-5.973,14.507-10.24,23.893-10.24S226.266,178.053,232.239,184.026" data-original="#FFE079"/>
	<path style="fill:#1D887E" d="M71.812,105.519v358.4c-18.773,0-22.187-17.92-22.187-17.92L3.546,85.039   c-2.56-18.773,11.093-35.84,29.867-38.4l355.84-43.52c18.773-2.56,35.84,11.093,38.4,29.867l5.12,38.4H105.946   C87.172,71.386,71.812,86.746,71.812,105.519" data-original="#FFD0A1" class="active-path" data-old_color="#AAB1BA"/>
</g><path style="fill:#51565F" d="M465.346,503.319h-358.4c-21.333,0-38.4-17.067-38.4-38.4v-358.4c0-21.333,17.067-38.4,38.4-38.4  h358.4c21.333,0,38.4,17.067,38.4,38.4v358.4C503.746,486.253,486.679,503.319,465.346,503.319z M106.946,76.653  c-16.213,0-29.867,13.653-29.867,29.867v358.4c0,16.213,13.653,29.867,29.867,29.867h358.4c16.213,0,29.867-13.653,29.867-29.867  v-358.4c0-16.213-13.653-29.867-29.867-29.867H106.946z M465.346,469.186H141.079c-2.56,0-4.267-1.707-4.267-4.267  s1.707-4.267,4.267-4.267h320V110.786H111.212v333.653c15.36-17.067,51.2-52.053,98.133-52.053c49.493,0,81.067,22.187,92.16,31.573  c6.827-12.8,27.307-43.52,74.24-58.027v-33.28c-18.773-2.56-34.133-18.773-34.133-38.4c0-29.867,6.827-106.667,38.4-106.667  s38.4,76.8,38.4,106.667c0,19.627-15.36,35.84-34.133,38.4v31.573c13.653-3.413,29.013-5.12,46.933-5.12  c2.56,0,4.267,1.707,4.267,4.267c0,2.56-1.707,4.267-4.267,4.267c-18.773,0-34.987,2.56-48.64,5.973  c-0.853,0-1.707,0.853-2.56,0.853l0,0c-56.32,17.067-72.533,58.027-72.533,58.88c-0.853,1.707-1.707,2.56-3.413,2.56  s-2.56,0-4.267-0.853c0,0-34.133-33.28-90.453-33.28c-57.173,0-98.133,57.173-98.987,58.027c-0.853,1.707-3.413,2.56-5.12,1.707  c-1.707-0.853-2.56-2.56-2.56-4.267V107.373c0-2.56,1.707-4.267,4.267-4.267h358.4c2.56,0,4.267,1.707,4.267,4.267v358.4  C469.612,467.479,467.906,469.186,465.346,469.186z M380.012,196.119c-19.627,0-29.867,58.027-29.867,98.133  c0,16.213,13.653,29.867,29.867,29.867s29.867-13.653,29.867-29.867C409.879,254.146,399.639,196.119,380.012,196.119z   M41.239,386.412c-1.707,0-4.267-1.707-4.267-3.413L0.279,86.892c-2.56-21.333,12.8-40.107,33.28-42.667l355.84-43.52  c21.333-2.56,40.107,12.8,42.667,33.28l0.853,4.267c0,2.56-1.707,4.267-3.413,5.12c-2.56,0-4.267-1.707-5.12-3.413l-0.853-4.267  c-1.707-16.213-17.067-28.16-33.28-25.6l-355.84,43.52c-16.213,1.707-28.16,17.067-25.6,33.28l36.693,296.107  C45.506,383.853,43.799,386.412,41.239,386.412L41.239,386.412z M209.346,281.453c-2.56,0-4.267-1.707-4.267-4.267v-29.867  c-7.68-0.853-14.507-3.413-19.627-8.533l-21.333,21.333c-1.707,1.707-4.267,1.707-5.973,0c-0.853-0.853-0.853-1.707-0.853-3.413  s0-2.56,0.853-3.413l21.333-21.333c-4.267-5.12-7.68-11.947-8.533-19.627h-29.867c-2.56,0-4.267-1.707-4.267-4.267  c0-2.56,1.707-4.267,4.267-4.267h29.867c0.853-7.68,3.413-14.507,8.533-19.627l-21.333-21.333c-0.853-0.853-0.853-1.707-0.853-3.413  c0-1.707,0-2.56,0.853-3.413c1.707-1.707,4.267-1.707,5.973,0l21.333,21.333c5.12-4.267,11.947-7.68,19.627-8.533v-29.867  c0-2.56,1.707-4.267,4.267-4.267l0,0c2.56,0,4.267,1.707,4.267,4.267v29.867c7.68,0.853,14.507,3.413,19.627,8.533l21.333-21.333  c1.707-1.707,4.267-1.707,5.973,0c0.853,0.853,0.853,1.707,0.853,3.413c0,1.706,0,2.56-0.853,3.413l-21.333,21.333  c4.267,5.12,7.68,11.947,8.533,19.627h29.867c2.56,0,4.267,1.707,4.267,4.267c0,2.56-1.707,4.267-4.267,4.267h-29.867  c-0.853,7.68-3.413,14.507-8.533,19.627l21.333,21.333c0.853,0.853,0.853,1.707,0.853,3.413s0,2.56-0.853,3.413  c-1.707,1.707-4.267,1.707-5.973,0l-21.333-21.333c-5.12,4.267-11.947,7.68-19.627,8.533v29.867  C213.612,279.746,211.906,281.453,209.346,281.453z M209.346,238.786L209.346,238.786c16.213,0,29.867-13.653,29.867-29.867l0,0l0,0  c0-16.213-13.653-29.867-29.867-29.867s-29.867,13.653-29.867,29.867S193.133,238.786,209.346,238.786L209.346,238.786z" data-original="#51565F" class=""/></g> </svg>
