<?xml version="1.0"?>
<svg xmlns="http://www.w3.org/2000/svg" xmlns:xlink="http://www.w3.org/1999/xlink" version="1.1" id="Capa_1" x="0px" y="0px" viewBox="0 0 511.997 511.997" style="enable-background:new 0 0 511.997 511.997;" xml:space="preserve" width="512px" height="512px" class=""><g><polyline style="fill:#FFFFFF;" points="342.755,135.176 476.044,135.176 476.044,493.475 36.202,493.475 36.202,135.176   169.491,135.176 " data-original="#FFFFFF" class=""/><polyline style="fill:#67DDD2" points="179.224,135.176 60.912,135.176 9.279,135.176 60.912,17.814 451.334,17.814   502.966,135.176 451.334,135.176 333.021,135.176 " data-original="#FFC843" class="active-path" data-old_color="#FFC843"/><polyline style="fill:#FFFFFF;" points="383.675,185.832 256.123,58.281 128.571,185.832 " data-original="#FFFFFF" class=""/><polyline style="fill:#C1C8D2;" points="282.865,451.854 143.691,451.854 143.691,493.475 368.554,493.475 368.554,451.854   313.752,451.854 " data-original="#C1C8D2"/><polyline style="fill:#E1EAF8;" points="342.202,451.854 342.202,410.231 170.044,410.231 170.044,451.854 " data-original="#E1EAF8"/><rect x="204.237" y="226.773" style="fill:#FFC843" width="103.773" height="183.471" data-original="#76FFD9" class="" data-old_color="#76FFD9"/><g>
	<rect x="353.72" y="254.56" style="fill:#67DDD2" width="77.834" height="107.485" data-original="#FFC843" class="active-path" data-old_color="#FFC843"/>
	<rect x="80.686" y="254.56" style="fill:#67DDD2" width="77.834" height="107.485" data-original="#FFC843" class="active-path" data-old_color="#FFC843"/>
</g><g>
	<path style="fill:#434C54" d="M134.412,484.672H45.235V144.686h111.764l-35.025,35.025c-3.576,3.576-3.576,9.374,0,12.948   c3.576,3.576,9.374,3.576,12.948,0L255.998,71.584L377.075,192.66c1.787,1.787,4.131,2.682,6.474,2.682s4.687-0.894,6.474-2.682   c3.576-3.576,3.576-9.374,0-12.948l-35.025-35.025h111.764v62.05c0,5.057,4.1,9.156,9.156,9.156c5.057,0,9.156-4.1,9.156-9.156   v-62.05h17.766c3.094,0,5.977-1.561,7.668-4.152c1.69-2.591,1.958-5.86,0.713-8.691L459.589,14.481   c-1.463-3.324-4.75-5.469-8.381-5.469H60.789c-3.631,0-6.919,2.145-8.381,5.469L0.775,131.843   c-1.245,2.831-0.977,6.101,0.713,8.691c1.691,2.591,4.576,4.152,7.668,4.152h17.766v349.142c0,5.057,4.1,9.156,9.156,9.156h107.49   h224.863h107.49c5.057,0,9.156-4.1,9.156-9.156V237.624c0-5.057-4.1-9.156-9.156-9.156c-5.057,0-9.156,4.1-9.156,9.156v247.047   h-89.177L134.412,484.672L134.412,484.672z M336.688,126.373L262.474,52.16c-3.576-3.576-9.374-3.576-12.948,0l-74.214,74.214   H23.187l43.575-99.048h378.473l43.575,99.048H336.688z" data-original="#434C54" class=""/>
	<circle style="fill:#434C54" cx="229.619" cy="323.49" r="9.156" data-original="#434C54" class=""/>
</g></g> </svg>
