<?xml version="1.0"?>
<svg xmlns="http://www.w3.org/2000/svg" height="512px" viewBox="0 0 512 512" width="512px" class=""><g><path d="m504.5 256c0 137.242188-111.257812 248.5-248.5 248.5s-248.5-111.257812-248.5-248.5 111.257812-248.5 248.5-248.5 248.5 111.257812 248.5 248.5zm0 0" fill="#76ffd9" data-original="#76FFD9" class="active-path" style="fill:#67DDD2" data-old_color="#43967F"/><path d="m462.070312 256c0 113.808594-92.261718 206.070312-206.070312 206.070312s-206.070312-92.261718-206.070312-206.070312 92.261718-206.070312 206.070312-206.070312 206.070312 92.261718 206.070312 206.070312zm0 0" fill="#fff" data-original="#FFF"/><path d="m344.234375 256c0 48.730469-39.503906 88.234375-88.234375 88.234375s-88.234375-39.503906-88.234375-88.234375 39.503906-88.234375 88.234375-88.234375 88.234375 39.503906 88.234375 88.234375zm0 0" fill="#fff" data-original="#FFF"/><path d="m500.019531 178.378906c-1.257812-3.949218-5.476562-6.132812-9.421875-4.878906-3.945312 1.257812-6.128906 5.472656-4.875 9.421875 7.484375 23.542969 11.277344 48.132813 11.277344 73.078125 0 132.886719-108.113281 241-241 241s-241-108.113281-241-241 108.113281-241 241-241c60.441406 0 118.25 22.472656 162.773438 63.277344 3.058593 2.796875 7.800781 2.589844 10.597656-.464844 2.800781-3.050781 2.59375-7.796875-.460938-10.59375-47.300781-43.347656-108.707031-67.21875-172.910156-67.21875-68.378906 0-132.667969 26.628906-181.019531 74.980469-48.351563 48.351562-74.980469 112.640625-74.980469 181.019531s26.628906 132.667969 74.980469 181.019531c48.351562 48.351563 112.640625 74.980469 181.019531 74.980469s132.667969-26.628906 181.019531-74.980469c48.351563-48.351562 74.980469-112.640625 74.980469-181.019531 0-26.492188-4.03125-52.605469-11.980469-77.621094zm0 0" fill="#434c54" data-original="#434C54" class=""/><path d="m474.285156 153.71875c1.277344 2.722656 3.976563 4.316406 6.792969 4.316406 1.066406 0 2.152344-.230468 3.183594-.714844 3.75-1.757812 5.359375-6.226562 3.601562-9.972656-9.214843-19.636718-20.941406-38.082031-34.847656-54.824218-2.644531-3.1875-7.375-3.625-10.5625-.976563-3.1875 2.644531-3.625 7.375-.976563 10.5625 13.09375 15.761719 24.132813 33.125 32.808594 51.609375zm0 0" fill="#434c54" data-original="#434C54" class=""/><g fill="#969ba1"><path d="m256 126.925781c4.144531 0 7.5-3.359375 7.5-7.5v-39.453125c0-4.144531-3.355469-7.5-7.5-7.5s-7.5 3.355469-7.5 7.5v39.453125c0 4.140625 3.355469 7.5 7.5 7.5zm0 0" data-original="#000000"/><path d="m248.5 392.574219v39.453125c0 4.144531 3.355469 7.5 7.5 7.5s7.5-3.355469 7.5-7.5v-39.453125c0-4.140625-3.355469-7.5-7.5-7.5s-7.5 3.359375-7.5 7.5zm0 0" data-original="#000000"/><path d="m439.527344 256c0-4.144531-3.355469-7.5-7.5-7.5h-39.453125c-4.140625 0-7.5 3.355469-7.5 7.5s3.359375 7.5 7.5 7.5h39.453125c4.144531 0 7.5-3.355469 7.5-7.5zm0 0" data-original="#000000"/><path d="m72.472656 256c0 4.144531 3.355469 7.5 7.5 7.5h39.453125c4.140625 0 7.5-3.355469 7.5-7.5s-3.359375-7.5-7.5-7.5h-39.453125c-4.144531 0-7.5 3.355469-7.5 7.5zm0 0" data-original="#000000"/><path d="m403.234375 159.234375-16.804687 10.050781c-3.554688 2.125-4.714844 6.730469-2.589844 10.285156 1.40625 2.351563 3.894531 3.652344 6.445312 3.652344 1.308594 0 2.636719-.34375 3.839844-1.0625l16.808594-10.050781c3.554687-2.125 4.714844-6.726563 2.589844-10.285156-2.128907-3.554688-6.730469-4.714844-10.289063-2.589844zm0 0" data-original="#000000"/><path d="m117.871094 329.839844-16.804688 10.050781c-3.554687 2.125-4.714844 6.726563-2.589844 10.285156 1.40625 2.347657 3.894532 3.652344 6.445313 3.652344 1.308594 0 2.636719-.34375 3.839844-1.0625l16.808593-10.050781c3.554688-2.125 4.714844-6.730469 2.589844-10.285156-2.128906-3.554688-6.730468-4.710938-10.289062-2.589844zm0 0" data-original="#000000"/><path d="m332.429688 383.839844c-3.554688 2.128906-4.714844 6.730468-2.589844 10.289062l10.050781 16.804688c1.402344 2.351562 3.890625 3.652344 6.441406 3.652344 1.3125 0 2.636719-.34375 3.84375-1.0625 3.554688-2.125 4.714844-6.730469 2.589844-10.285157l-10.050781-16.808593c-2.125-3.554688-6.730469-4.710938-10.285156-2.589844zm0 0" data-original="#000000"/><path d="m172.109375 101.066406c-2.125-3.554687-6.726563-4.710937-10.285156-2.589844-3.554688 2.125-4.714844 6.730469-2.589844 10.285157l10.050781 16.808593c1.402344 2.351563 3.890625 3.652344 6.441406 3.652344 1.3125 0 2.636719-.34375 3.84375-1.0625 3.554688-2.128906 4.714844-6.730468 2.589844-10.289062zm0 0" data-original="#000000"/><path d="m346.578125 96.382812c-3.605469-2.046874-8.179687-.78125-10.226563 2.820313l-9.664062 17.027344c-2.042969 3.605469-.78125 8.183593 2.820312 10.226562 1.171876.664063 2.441407.980469 3.695313.980469 2.613281 0 5.148437-1.367188 6.53125-3.800781l9.664063-17.027344c2.042968-3.605469.78125-8.183594-2.820313-10.226563zm0 0" data-original="#000000"/><path d="m172.265625 388.363281-9.664063 17.027344c-2.042968 3.605469-.78125 8.183594 2.820313 10.226563 1.171875.664062 2.441406.980468 3.695313.980468 2.609374 0 5.148437-1.367187 6.527343-3.800781l9.664063-17.027344c2.046875-3.605469.78125-8.183593-2.820313-10.226562-3.601562-2.046875-8.179687-.78125-10.222656 2.820312zm0 0" data-original="#000000"/><path d="m395.769531 326.6875c-3.605469-2.046875-8.179687-.78125-10.226562 2.820312-2.046875 3.605469-.78125 8.183594 2.820312 10.226563l17.027344 9.664063c1.171875.664062 2.441406.980468 3.695313.980468 2.613281 0 5.148437-1.367187 6.53125-3.800781 2.042968-3.601563.78125-8.179687-2.820313-10.226563zm0 0" data-original="#000000"/><path d="m123.636719 172.265625-17.027344-9.664063c-3.605469-2.046874-8.183594-.78125-10.226563 2.820313-2.042968 3.601563-.78125 8.179687 2.820313 10.226563l17.027344 9.664062c1.171875.664062 2.441406.976562 3.695312.976562 2.613281 0 5.148438-1.363281 6.53125-3.796874 2.046875-3.605469.78125-8.183594-2.820312-10.226563zm0 0" data-original="#000000"/><path d="m263.5 239.800781v-93.058593c0-4.105469-3.164062-7.6875-7.269531-7.808594-4.246094-.128906-7.730469 3.277344-7.730469 7.496094v93.371093c0 4.140625 3.359375 7.5 7.5 7.5s7.5-3.359375 7.5-7.5zm0 0" data-original="#000000"/><path d="m335.964844 249.8125h-68.632813c-4.140625 0-7.5 3.359375-7.5 7.5s3.359375 7.5 7.5 7.5h68.945313c4.21875 0 7.625-3.480469 7.496094-7.730469-.121094-4.101562-3.703126-7.269531-7.808594-7.269531zm0 0" data-original="#000000"/></g><path d="m279.515625 257.3125c0 12.988281-10.527344 23.515625-23.515625 23.515625s-23.515625-10.527344-23.515625-23.515625c0-12.984375 10.527344-23.511719 23.515625-23.511719s23.515625 10.527344 23.515625 23.511719zm0 0" fill="#ffc843" data-original="#FFC843"/><path d="m266.015625 257.3125c0 5.53125-4.484375 10.015625-10.015625 10.015625s-10.015625-4.484375-10.015625-10.015625c0-5.527344 4.484375-10.011719 10.015625-10.011719s10.015625 4.484375 10.015625 10.011719zm0 0" fill="#ffdf78" data-original="#FFDF78"/></g> </svg>
